<svg width="143" height="130" viewBox="0 0 143 130" fill="none" xmlns="http://www.w3.org/2000/svg">
<path d="M141.867 124.667C136.5 126.183 131.717 127 127.517 127C113.517 127 104.067 116.733 99.2833 96.0833H98.7C87.15 118.367 70.9333 129.45 50.5167 129.45C35.2333 129.45 22.9833 123.733 13.7667 112.183C4.55 100.633 0 86.1666 0 68.6666C0 48.25 5.25 31.9167 15.6333 19.2C26.0167 6.48332 40.1333 0.0666504 57.9833 0.0666504C67.55 0.0666504 76.1833 2.74999 83.65 7.99999C91.1167 13.3667 96.8333 20.8333 100.8 30.5166H101.267L109.55 2.51665H139.417L114.45 64.5833C117.25 79.05 120.167 88.9666 123.433 94.2166C126.233 99.4666 130.2 102.15 135.1 102.15C137.9 102.15 140.117 101.683 142.1 100.867L141.867 124.667ZM92.1667 63.5333C89.7167 50.35 85.75 40.0833 80.3833 33.0833C75.1333 25.9666 68.7167 22.4667 61.3667 22.4667C51.8 22.4667 44.1 26.7833 38.3833 35.3C32.6667 43.9333 30.1 54.55 30.1 67.0333C30.1 78.4666 32.3167 87.9167 37.3333 95.6167C42.2333 103.317 48.8833 107.05 57.1667 107.05C64.1667 107.05 70.5833 103.667 76.3 97.25C82.1333 90.6 86.9167 80.9166 90.7667 68.2L92.1667 63.5333V63.5333Z" fill="#1F1F1F"/>
</svg>
