<svg width="43" height="45" viewBox="0 0 43 45" fill="none" xmlns="http://www.w3.org/2000/svg">
<path d="M30.7544 0.0646126C31.0726 0.169067 31.3359 0.394204 31.4862 0.690506C31.6366 0.986808 31.6617 1.33001 31.5561 1.64463L30.2916 5.39466C30.1856 5.70961 29.9574 5.97004 29.6572 6.11866C29.3569 6.26728 29.0093 6.29193 28.6907 6.18716C28.3721 6.0824 28.1086 5.85682 27.9583 5.56004C27.8079 5.26326 27.783 4.9196 27.889 4.60465L29.1535 0.854619C29.2061 0.698785 29.2892 0.55472 29.3981 0.430662C29.507 0.306603 29.6396 0.204984 29.7883 0.131614C29.937 0.0582437 30.0988 0.0145618 30.2646 0.0030652C30.4304 -0.0084314 30.5968 0.012483 30.7544 0.0646126ZM40.1043 4.63465C40.2219 4.51843 40.3151 4.38046 40.3788 4.22861C40.4424 4.07676 40.4751 3.91401 40.4751 3.74964C40.4751 3.58528 40.4424 3.42253 40.3788 3.27068C40.3151 3.11883 40.2219 2.98086 40.1043 2.86464C39.9867 2.74842 39.8471 2.65622 39.6935 2.59333C39.5399 2.53043 39.3753 2.49805 39.209 2.49805C39.0427 2.49805 38.8781 2.53043 38.7245 2.59333C38.5709 2.65622 38.4313 2.74842 38.3137 2.86464L33.2556 7.86468C33.1381 7.98074 33.0448 8.11855 32.9811 8.27025C32.9174 8.42194 32.8845 8.58456 32.8844 8.7488C32.8842 9.08051 33.0173 9.39873 33.2544 9.63344C33.4915 9.86816 33.8132 10.0002 34.1488 10.0004C34.4843 10.0006 34.8062 9.86908 35.0437 9.6347L40.1018 4.63465H40.1043ZM14.1866 5.36216C14.5396 4.62791 15.0685 3.98984 15.7273 3.50322C16.3861 3.0166 17.155 2.69612 17.9674 2.56954C18.7797 2.44296 19.6111 2.51411 20.3894 2.77681C21.1677 3.03951 21.8694 3.48585 22.4338 4.07715L39.0927 21.5273C39.6486 22.1095 40.055 22.8152 40.2776 23.585C40.5002 24.3547 40.5326 25.1661 40.372 25.9508C40.2114 26.7355 39.8625 27.4706 39.3547 28.0943C38.8469 28.718 38.195 29.212 37.4538 29.5349L27.497 33.8749C27.8661 35.1761 27.9256 36.5442 27.6709 37.8719C27.4162 39.1997 26.8542 40.4512 26.0288 41.5286C25.2035 42.6059 24.1372 43.4799 22.9133 44.0821C21.6894 44.6843 20.3412 44.9985 18.9741 45C17.4673 45.0008 15.9853 44.6212 14.6686 43.8971C13.3518 43.173 12.244 42.1284 11.4501 40.8625L8.41527 42.1825C7.71809 42.4864 6.94449 42.5757 6.19522 42.4388C5.44596 42.3019 4.75576 41.9451 4.21452 41.415L1.12402 38.3874C0.565193 37.8403 0.192236 37.1349 0.0567597 36.369C-0.0787163 35.6031 0.029989 34.8146 0.367832 34.1124L14.1866 5.36466V5.36216ZM13.7971 39.8375C14.6365 41.022 15.8654 41.8821 17.2745 42.2712C18.6836 42.6603 20.1856 42.5543 21.5244 41.9713C22.8633 41.3883 23.9562 40.3643 24.6169 39.074C25.2775 37.7836 25.4651 36.3067 25.1475 34.8949L13.7971 39.8375ZM20.5952 5.79216C20.3128 5.49687 19.9618 5.27407 19.5727 5.14307C19.1836 5.01207 18.768 4.9768 18.362 5.04033C17.956 5.10386 17.5717 5.26426 17.2426 5.50766C16.9134 5.75105 16.6492 6.0701 16.4728 6.43717L2.65157 35.1874C2.53964 35.4212 2.50385 35.6836 2.54915 35.9384C2.59445 36.1932 2.71859 36.4278 2.90447 36.6099L5.99497 39.635C6.17506 39.8116 6.40473 39.9306 6.65415 39.9766C6.90357 40.0225 7.16119 39.9932 7.39354 39.8925L36.4321 27.2498C36.8027 27.0886 37.1286 26.8418 37.3826 26.5302C37.6366 26.2186 37.8112 25.8512 37.8918 25.459C37.9723 25.0668 37.9564 24.6612 37.8455 24.2764C37.7345 23.8915 37.5317 23.5386 37.2541 23.2473L20.5952 5.79716V5.79216ZM37.942 12.4997C37.6066 12.4997 37.2849 12.6314 37.0478 12.8658C36.8107 13.1003 36.6774 13.4182 36.6774 13.7497C36.6774 14.0813 36.8107 14.3992 37.0478 14.6336C37.2849 14.868 37.6066 14.9997 37.942 14.9997H41.7355C42.0709 14.9997 42.3925 14.868 42.6297 14.6336C42.8668 14.3992 43.0001 14.0813 43.0001 13.7497C43.0001 13.4182 42.8668 13.1003 42.6297 12.8658C42.3925 12.6314 42.0709 12.4997 41.7355 12.4997H37.942Z" fill="#3FB1B5"/>
</svg>
