<svg width="9" height="8" viewBox="0 0 9 8" fill="none" xmlns="http://www.w3.org/2000/svg">
<path d="M8.86517 3.72809L4.2455 0.0438202C4.21004 0.0157303 4.1648 0 4.11711 0H3.03495C2.94446 0 2.90289 0.103371 2.97136 0.157303L7.25355 3.57303H0.0978226C0.0440202 3.57303 0 3.61348 0 3.66292V4.33708C0 4.38652 0.0440202 4.42697 0.0978226 4.42697H7.25232L2.97014 7.8427C2.90166 7.89775 2.94324 8 3.03372 8H4.15257C4.1758 8 4.19904 7.99213 4.21615 7.97753L8.86517 4.27191C8.90751 4.23809 8.94145 4.19631 8.96471 4.1494C8.98796 4.10249 9 4.05155 9 4C9 3.94845 8.98796 3.89751 8.96471 3.8506C8.94145 3.80369 8.90751 3.76191 8.86517 3.72809V3.72809Z" fill="black"/>
</svg>
