<svg width="310" height="497" viewBox="0 0 310 497" fill="none" xmlns="http://www.w3.org/2000/svg">
<path d="M89.4101 17.1855L77.7602 9.51013L70.123 21.1852L58.4731 13.5098L50.8359 25.1848L39.186 17.5094L32.2155 28.1653L30.1815 26.8252L38.4854 14.131L50.1353 21.8064L57.7725 10.1314L69.4224 17.8068L77.0596 6.13175L88.7095 13.8071L96.3467 2.13211L109.014 10.4775L107.679 12.5161L97.0473 5.51049L89.4101 17.1855Z" fill="white"/>
<path d="M110.731 24.0092L99.0807 16.3339L91.4435 28.0089L79.7936 20.3335L72.1564 32.0085L60.5065 24.3331L53.536 34.989L51.502 33.6489L59.8059 20.9548L71.4558 28.6301L79.093 16.9551L90.7429 24.6305L98.3801 12.9555L110.03 20.6309L117.667 8.95583L130.334 17.3012L129.001 19.3396L118.368 12.3342L110.731 24.0092Z" fill="white"/>
<path d="M239.008 467.121L220.794 455.121L208.855 473.374L190.641 461.374L178.701 479.627L160.488 467.627L149.59 484.287L146.411 482.192L159.393 462.346L177.606 474.345L189.546 456.093L207.759 468.092L219.699 449.84L237.913 461.839L249.852 443.587L269.656 456.634L267.569 459.821L250.948 448.868L239.008 467.121Z" fill="white"/>
<path d="M272.34 477.789L254.127 465.79L242.187 484.042L223.973 472.043L212.034 490.295L193.82 478.296L182.923 494.955L179.743 492.86L192.725 473.014L210.938 485.014L222.878 466.761L241.091 478.761L253.031 460.508L271.245 472.508L283.185 454.255L302.988 467.302L300.903 470.489L284.28 459.537L272.34 477.789Z" fill="white"/>
<line x1="102.768" y1="175.232" x2="132.768" y2="205.232" stroke="white" stroke-width="5"/>
<line y1="-2.5" x2="42.4264" y2="-2.5" transform="matrix(-0.707107 0.707107 0.707107 0.707107 135 177)" stroke="white" stroke-width="5"/>
<line x1="162.936" y1="69.0641" x2="178.818" y2="84.9465" stroke="black" stroke-width="2.64706"/>
<line y1="-1.32353" x2="22.461" y2="-1.32353" transform="matrix(-0.707107 0.707107 0.707107 0.707107 180 70)" stroke="black" stroke-width="2.64706"/>
<line x1="270.936" y1="268.064" x2="286.818" y2="283.946" stroke="black" stroke-width="2.64706"/>
<line y1="-1.32353" x2="22.461" y2="-1.32353" transform="matrix(-0.707107 0.707107 0.707107 0.707107 288 269)" stroke="black" stroke-width="2.64706"/>
<line y1="-2.5" x2="42.4264" y2="-2.5" transform="matrix(-0.707107 0.707107 0.707107 0.707107 125 391)" stroke="black" stroke-width="5"/>
<path fill-rule="evenodd" clip-rule="evenodd" d="M183.7 129.5L184 129.3L183.7 129.5ZM184 129.1C184 129.1 184.2 129.1 184.3 128.9C184.1 128.9 184 128.9 183.9 129.1H184ZM185 128.6C185.5 128.3 185.2 128.3 185 128.6C185.1 128.6 185 128.5 185 128.6ZM189.3 126.6C189.7 126.4 189.7 126 189.3 126.6C189.3 126.6 189.4 126.5 189.3 126.6ZM184.6 128.6C184.7 128.2 185 128.4 184.6 128.6V128.6ZM189.9 126.2C190.4 125.8 189.9 126.1 189.9 126.2C190 126.1 189.9 126.2 189.9 126.2ZM187.2 127L187.5 126.7C187.3 126.7 187.3 126.9 187.2 126.9V127ZM191.4 125C193.7 123.4 191.2 124.6 191.4 125V125ZM187.7 126.6C188.2 126.2 187.7 126.4 187.7 126.6C187.7 126.6 187.7 126.4 187.7 126.6ZM188 125.8L188.3 125.5C188.2 125.5 187.9 125.7 188 125.8ZM195 122.6L195.2 122.3L194.9 122.6H195ZM189.2 124.8C189.2 124.8 189.5 124.7 189.5 124.5L189.2 124.8ZM193.8 122.2C195.2 121.3 193.4 122.1 193.8 122.2C194 122.1 193.7 122.2 193.8 122.2ZM190.4 123.5L190 123.7L190.4 123.5ZM191.8 122.5C192.8 121.5 191.6 122.7 191.8 122.5C192 122.3 191.9 122.3 191.8 122.5ZM197.2 120.1L197.5 119.9L197.2 120.1ZM197.3 119.6C196.3 119.8 197.6 120.1 197.3 119.6C197.2 119.6 197.3 119.6 197.3 119.6ZM200 118.4C200.2 118.4 200.4 118.3 200.5 118.1L200 118.4ZM190.4 122.5C190.6 122.5 190.8 122.2 190.4 122.5C190.5 122.5 190.4 122.5 190.4 122.5ZM191.7 122L192 121.8C192 121.7 191.7 121.8 191.7 122ZM191.2 121.9C192.8 121.5 192.5 120.5 191.2 121.9C191.2 121.9 191.4 121.7 191.2 121.9ZM199.3 118.1C199.2 118.1 199.3 118.1 199.3 118.1V118.1ZM187.8 123C187.9 123 188.1 123 188.2 122.7L187.8 123.1V123ZM187.7 123L188 122.8C187.8 122.8 187.8 122.9 187.7 123ZM188.3 122.6C188.7 122.1 187.9 122.8 188.3 122.6C188.3 122.6 188.2 122.6 188.3 122.6ZM199.7 117.7L200.2 117.4C200.2 117.2 199.9 117.6 199.7 117.7ZM186.3 123C186.5 123 186.6 122.8 186.8 122.5L186.3 123ZM201.3 116.5L200.9 116.7C200.9 116.7 201.2 116.7 201.3 116.5ZM191 121C191.1 121 191.5 120.5 191.3 120.6L190.9 121H191ZM194.2 119.5C193.8 119.2 196.1 118.5 194.2 119.5C194.2 119.5 194.4 119.4 194.2 119.5ZM188.7 121.6C188.9 121.6 189.1 121.4 189.2 121.3L188.7 121.6ZM202 116C203 115.2 202.7 114.6 202 116C202.1 115.9 202.2 115.5 202 116ZM192.7 119.6C192.9 119.6 193 119.1 192.7 119.6C192.8 119.6 192.7 119.5 192.7 119.6ZM203 115.2C203.2 114.7 203.6 114.8 203 115.2C202.9 115.2 203 115.2 203 115.2ZM203.4 114.8C204.6 113.9 203.6 114.5 203.4 114.8C203.7 114.6 203.5 114.6 203.4 114.8ZM192.5 119C192.7 118.8 192.9 118.5 192.7 118.6L192.5 118.9V119ZM204.8 113.7C205.6 113.3 206.1 112.1 204.8 113.7C205 113.6 205 113.4 204.8 113.7ZM199.7 115.3L200.1 114.8C199.9 115 199.7 115.1 199.7 115.3ZM196.6 116.5C196.8 116.3 196.8 116.2 196.6 116.5C196.7 116.4 196.6 116.5 196.6 116.5ZM200.3 113.6L200.8 113.1L200.3 113.6ZM196.9 114.2C197.3 114 197.1 113.9 196.9 114.2C197 114.2 196.9 114.2 196.9 114.2ZM194.4 115.2C194.6 115.2 194.7 115 194.9 114.8L194.4 115.2ZM204.6 110.6C205.1 110.4 204.6 110.4 204.6 110.6C204.6 110.6 204.6 110.5 204.6 110.6ZM197.7 113.1C198.5 112.7 198.4 112.1 197.7 113.1C197.9 113.1 197.8 112.9 197.7 113.1ZM205.2 109.6C205.6 109.3 205.2 109.6 205.2 109.6C205.2 109.6 205.3 109.5 205.2 109.6ZM200 111.1L200.5 110.7L199.9 111.1H200ZM199.3 111L199.7 110.6L199.3 111ZM202 109.7L202.4 109.4L202 109.7ZM203.5 108.6C203.9 108.4 203.8 108.4 203.5 108.6C203.6 108.6 203.5 108.6 203.5 108.6ZM204 108L204.4 107.8C204.4 107.8 204.1 107.9 204.1 108.1L204 108ZM211.5 105.6C212.1 105.4 212 105.6 211.5 105.6C211.5 105.6 211.2 105.6 211.5 105.6ZM212.1 105.4C212.7 105.6 212.8 105.1 212.1 105.4C212.1 105.4 212.2 105.4 212.1 105.4ZM213.3 105.7H213.7H213.3ZM206.4 106.4C206.6 106.3 206.4 106.2 206.4 106.2C206.2 106.4 206.4 106.3 206.4 106.4ZM206 106.5L206.6 106L205.9 106.5H206ZM206.7 106.1C207.7 105.2 206.7 106.1 206.7 106.1V106.1ZM207.5 105.8C208 105.4 208.1 105.4 207.7 105.5L207.5 105.8ZM214.8 106C215 106.2 215.1 106.3 215.3 106.3L214.8 106.1V106ZM217 107.5C219.4 108.9 217 107.5 217 107.5C217.4 107.7 216.8 107.3 217 107.5ZM211 104L211.4 103.8L211 103.9V104ZM211.4 103.8L212 103.7L211.4 103.8ZM218.7 109.1C218.9 109.5 219.1 109.4 218.7 109.1C218.7 109.1 218.8 109.1 218.7 109.1ZM215.8 104.7H216C215.7 104.6 215.3 104.6 215.8 104.7ZM222.8 110.2C222.8 110.5 223 110.7 223.1 110.7L222.8 110.2ZM224.6 115.5C224.6 115.9 225.4 117.1 224.6 115.5C224.6 115.7 224.7 115.8 224.6 115.5ZM225.2 117.3C225.4 117.9 225.5 117.5 225.2 117.3V117.3ZM225.3 118C225.7 117.9 225.3 118 225.3 118C225.3 118 225.3 117.9 225.3 118ZM225.5 118.7C226.2 119.4 225.5 118.6 225.5 118.7C225.6 118.8 225.5 118.6 225.5 118.7ZM226 119.3C225.7 119 226 119.8 226 119.3C225.9 119.2 226 119.3 226 119.3ZM226 119.4C226 119.7 226 119.7 226 119.4C226 119.5 226 119.4 226 119.4ZM226.2 119.6L226.3 120L226.2 119.6ZM227.3 121.6C227.9 121.9 227.3 121.6 227.3 121.6C227.3 121.6 227.2 121.5 227.3 121.6ZM228.1 122.4C228.2 122.7 228.4 122.6 228.1 122.4C228.1 122.5 228.1 122.4 228.1 122.4ZM228.6 122.9C229.3 123.5 228.9 122.9 228.6 122.9C228.7 122.9 228.7 122.9 228.6 122.9ZM229 123C229.2 123.2 229.3 123 229 123C229.1 123 229.2 123 229 123ZM229.6 123.5C230.8 123.5 229.3 123.2 229.6 123.5C229.8 123.5 229.5 123.4 229.6 123.5Z" fill="black"/>
<path fill-rule="evenodd" clip-rule="evenodd" d="M229.7 123.3L230.1 123.4C230.1 123.4 229.9 123.3 229.7 123.4V123.3ZM230.4 123.4C230.5 123.5 230.7 123.4 230.4 123.4C230.4 123.4 230.5 123.4 230.4 123.4ZM231.3 123.5C231.5 123.6 231.5 123.4 231.3 123.5V123.5ZM242.5 114C243.5 113 242.5 113.5 242.5 114C242.7 113.9 242.5 114 242.5 114ZM245.2 109.6L245.4 109.3L245.2 109.6ZM249 105.4L249.4 104.9L248.9 105.4H249ZM251 103.6L251.7 103C251.5 103.1 251.1 103.4 251.1 103.6H251ZM256 100.7L256.7 100.5C256.7 100.5 256.2 100.5 256.1 100.7H256ZM262.4 100C262.7 99.8 262.1 100 262.4 100C262.4 100 262.2 100 262.4 100ZM271.4 114.7L271.9 115.8L271.4 114.8V114.7ZM272 115.8C272 116 272 116.2 272.2 116.3L272 115.8ZM272.1 105.5C273.8 106.3 272.1 105.4 272.1 105.5C272.1 105.5 272.1 105.4 272.1 105.5ZM273 107C273 107 273.2 107.2 273.2 107C273 106.9 273 107 273 107ZM273 106.5C273.2 106.7 273.2 107.3 273 106.5C273 106.5 273 106.7 273 106.5ZM278.8 118.1C278.8 118.7 279 118.4 278.8 118.1C278.8 118.3 278.8 118.1 278.8 118.1ZM279.2 118.8L279.4 119C279.4 118.8 279.3 118.8 279.2 118.8ZM279.4 119.6C279.4 119.8 281.2 123.5 279.4 119.6C279.6 120 279.7 120.2 279.4 119.6Z" fill="black"/>
<path fill-rule="evenodd" clip-rule="evenodd" d="M280 121C280 121.2 280.2 121.3 280.3 121.5C280.28 121.318 280.211 121.145 280.1 121H280ZM280.4 121.6L280.6 122.1C280.6 122.1 280.6 121.8 280.4 121.6ZM280.5 122.1C280.8 122.8 280.9 122.6 280.5 122.1C280.6 122.3 280.6 122.3 280.5 122.1ZM281.4 122.1C281.8 122.2 281.5 122.6 281.4 122.1C281.4 122.1 281.4 122.2 281.4 122.1ZM281.6 123.7C281.9 123.7 281.6 123.7 281.6 123.7V123.7ZM281.8 122.8C282 123.2 282.3 123.6 281.8 122.8C281.8 123 281.9 123 281.8 122.8ZM281.8 123.8C282 124.1 281.7 123.8 281.8 123.8V123.8ZM282 124C282 124 282 123.6 282 124V124ZM282 123.8C282 123.9 282 123.8 282 123.8C282 123.7 282 123.8 282 123.8ZM282 123.6H282.1C282.1 123.5 282.1 123.6 282.1 123.6H282ZM282 123.7H282.1H282ZM282.2 123.8V123.6V123.8C282.2 123.8 282.2 123.9 282.2 123.8ZM282.3 123.6V123.5V123.6ZM181.8 130.8C181.2 131 183.2 129.9 183.6 129.3C182.6 129.8 182 130.5 181.8 130.8C181.8 130.8 181.9 130.6 181.8 130.8ZM185.6 128.4C186.6 127.8 186.1 127.7 185.6 128.4C185.8 128.3 185.7 128.2 185.6 128.4Z" fill="black"/>
<path fill-rule="evenodd" clip-rule="evenodd" d="M186.5 127.6C188.9 125.6 191.7 123 192.3 123C192.3 123.2 197.8 118.5 196.5 120C202.2 118.8 205.8 108.5 210.8 108.6C220.1 109 216.5 116.6 221.6 122.7C231.2 134.7 240.8 125.7 247.3 115.7C241.6 120.9 237.3 133 226.8 128.1C216.5 123.4 221.9 109.6 211 108.8C204.292 113.087 198.145 118.193 192.7 124L193.1 123.7C194.087 122.982 195.087 122.282 196.1 121.6C198.7 119.6 204.8 111.4 209.4 110.8C221.8 109.1 215.4 125.6 227.8 129.4C246.8 135.3 247.5 99.7 265.4 106.6C269.9 108.3 271.6 114.7 273.3 118.3C273 117.7 272.9 117.6 273 118L272.2 116.4C277.2 136.4 287.1 130 294 115C293.7 115.3 293.7 115.2 294 114.8C291.9 116.8 290.4 117.8 289 121.1C289 120.7 289 120.7 288.7 121.1C289.3 120 288.7 121.1 288.5 121.3C288.2 120.9 292.2 116.3 293.6 114.3C292 115.3 290.5 118.5 289.3 118.3C290.4 117 297.1 109.3 296.5 108.3C295.3 109.1 292.1 113.5 292.7 111.9C291 112.7 290.9 115.3 291.6 113.1C287.9 115.2 288.6 117.4 284.1 121.7C283.5 119.4 284.7 122.3 284.2 120.9C283.1 121.4 282.3 123.8 282.2 124.4C282.2 124.4 282.4 123.6 282.5 123.7C282.389 124.042 282.256 124.376 282.1 124.7C282.1 124.5 280.1 121.7 279.5 120.4C279.3 121.7 278.5 116.9 278.5 118.4C270.8 105.4 273.4 101.7 257.5 100.3C258 100 254.9 100.9 257.9 100.3C252.3 103 246.2 105.5 243.1 113C242.9 113.1 242.9 113.3 242.9 113.5C243.4 112.7 243.4 112.5 243.9 112C240.9 115.7 237 122 236 122C236 122.1 234.7 122.9 234.5 122.9C234.5 122.9 236.1 121.8 235.9 121.7C233.9 122.2 234.5 123.6 232.5 123.3C232.4 123.5 233.5 122.9 232.4 123.6C232.5 123.6 232.3 123.4 232 123.7C232.4 123.7 232.7 123.7 233 123.4C232.7 123.5 232.7 123.5 233 123.4C233 123.8 231 124 231.4 123.9C232 124.2 231 124.1 231 124.1L231.8 123.7C229.4 122.7 224.2 114.5 224.3 114.5C224.6 114.1 222.5 110.5 222.3 109.7L222.7 110.3L221.7 108.5L222.2 109.6C215.7 99.6 206.5 102.7 201.2 109.6C205.1 106.6 201.2 109.2 202.4 108.7C201.7 109.7 198.9 112 197.4 112.9L198.1 112.2L195.4 114.4C197.4 112.1 201 111.6 203.1 108.5C202.9 108.5 205.7 105.9 208.7 104.5L208.2 104.8C209 104.5 211.4 104 213.4 103.8C213.09 103.648 212.745 103.579 212.4 103.6C213.3 103.4 218.8 104.7 218.8 106.6C218.6 106.6 218.5 106.5 218.7 106.4C218.9 106.6 217.4 105.1 216 104.9C217.2 105.9 215.3 104.2 216.9 105.4C216.9 104.9 213.3 104.2 213.1 104.2L215.5 104.7C211.2 104.7 194.6 111.4 196.2 114.8C195.5 115.9 192.5 118.1 192.2 118.3C191.7 118.1 192 117.9 193.2 117.5L192.7 117.9C190.7 120.2 188 120 187 122.5C188.581 121.149 190.328 120.006 192.2 119.1C191.6 119.6 191.2 119.8 190.8 120.3C192.4 118 193.3 117.8 195 116.9C192.8 119.3 191.2 118.7 188.6 122.5C190.039 121.973 191.291 121.034 192.2 119.8C192.2 120 192.1 120.1 191.8 120.2C199.7 114 216.5 94.7 221 113.5C220.8 113 220.7 113.1 221 113.6C221 113.5 220.3 112.5 220.7 113.3C220.7 113.3 220.3 112.6 220.3 112.3C220.4 112.7 220.7 112.8 220.8 113C220.5 110.4 213 101 207.4 108.1C207.7 108.1 199.4 114.6 197.6 116.7C197.4 115.9 195.5 118.3 195.8 118C195.475 118.243 195.203 118.549 195 118.9C194 119.6 196.9 117.7 197.2 117.2C195.7 117.9 192.6 121 192 121.7C193.7 120.3 196 118 198.8 116.7C194.983 120.611 190.871 124.221 186.5 127.5C186.3 127.6 186.7 127.4 186.5 127.5V127.6ZM202 115.6C202 115.4 202.3 115.4 202.4 115.3L202 115.6ZM213.2 108.5C212.2 108.9 212.9 108 213.2 108.5C213.1 108.5 213.1 108.3 213.2 108.5ZM289.2 118.7L289.5 118.4L289.3 118.7H289.2ZM288 117.7C289.6 115.5 288.1 117.9 288 117.7C288.1 117.5 288 117.8 288 117.7ZM275.2 110.6L274.9 110L275.2 110.6ZM261 100C260.9 100 260.5 100 260.6 99.9H261V100ZM248.6 105.8C248.8 105.7 248.8 105.5 249 105.5L248.6 105.8ZM199 111.6L198.4 111.9C198.6 111.9 198.9 111.5 199 111.6ZM202.8 109.6C202.8 109.6 202.1 110.2 202.2 110C202.5 110 202.6 109.7 202.8 109.6ZM188.8 121C189 120.5 189.4 120.8 188.8 121C188.8 120.9 189 121 188.8 121ZM208.5 107.5L207.6 108.1L208.5 107.5ZM200.8 114L200.4 114.3L200.8 114ZM196.8 117.1L196.7 117.4L196.9 117.1H196.8ZM187.8 126.3C186.8 126.8 187.9 126.5 187.8 126.3C187.7 126.3 187.8 126.3 187.8 126.3ZM193.5 121.9L193.2 122.2L193.5 121.9ZM199.2 117.8L198.8 118.1C198.9 117.9 199.1 117.8 199.2 117.8ZM200.4 116.8L199.9 117.2L200.4 116.8ZM190.6 121L191.4 120.3L190.6 121ZM204.4 114.8C204.4 114.8 204.1 115.1 203.9 115.1L204.4 114.8ZM198 117.5C197.9 117.6 197.8 117.8 197.6 117.8L198 117.5ZM190.4 120.8C190.4 120.8 190.2 121.1 190.2 120.9C190.3 120.9 190.5 120.6 190.4 120.8ZM190.7 120.5C191.3 120.5 190.7 120.5 190.7 120.5C190.8 120.5 190.7 120.6 190.7 120.5ZM191.6 120L191.2 120.4C191.2 120.2 191.4 120.1 191.6 120ZM197.4 117C197.8 116.6 197.2 117.2 197.4 117C197.4 117 197.6 117 197.4 117ZM192.8 119C192.6 119.2 192.2 119.3 192.8 119C192.8 119 192.7 119 192.8 119ZM189.8 120.2C189.8 120.2 189.8 120.4 189.5 120.5C189.5 120.4 190.1 119.9 189.9 120.2H189.8ZM198.2 116.3C199.6 115.6 198.4 116.7 198.2 116.3C198.5 116.2 198.2 116.4 198.2 116.3ZM203.5 114.3L203.2 114.6L203.5 114.2V114.3ZM197.3 116.9C197.6 116.9 197.2 116.9 197.3 116.9C197.3 116.9 197.1 117.1 197.3 116.9ZM191.3 119.2C191.3 119.2 189.8 120.3 191.3 119.2C191.3 119.3 191.1 119.4 191.3 119.2ZM194.1 118L193.8 118.3C193.8 118.2 193.9 118 194.1 118ZM192.2 118.8C192.9 118.6 192.5 118.1 192.2 118.8C192 118.8 192.2 118.7 192.2 118.8ZM200.8 114.5C200.8 114.4 198.1 117 200.1 114.8C200.2 114.8 200.6 114.8 200.8 114.5C200.8 114.5 200.9 114.4 200.8 114.5ZM194.3 117.7C194.7 117.2 194.2 117.7 194.3 117.7C194.4 117.6 194.3 117.7 194.3 117.7ZM208.4 111.5L208.2 111.8C208.2 111.7 208.2 111.5 208.4 111.5ZM206 112.3C206 112.4 205.5 112.7 205.6 112.5L206 112.3ZM193.6 117.6C193.3 117.9 193.4 117.6 193.6 117.6C193.6 117.6 193.4 117.6 193.6 117.6ZM195.3 116.6C195.3 116.6 194.2 117.7 195.3 116.6C195.3 116.6 195.1 116.8 195.3 116.6ZM193.7 117.5C194 116.8 194 117.1 193.7 117.5C193.7 117.4 193.7 117.5 193.7 117.5ZM196.1 116.2L195.7 116.5C195.7 116.3 196.2 116 196.1 116.2ZM196.4 115.9C197.2 115.4 196.4 116.3 196.4 115.9C196.6 115.9 196.4 116 196.4 115.9ZM197.8 115.3L197.2 115.8L197.8 115.3ZM194.3 117C195.3 115.8 194.7 116.8 194.3 117C194.5 116.8 194.3 117 194.3 117ZM201.7 113.5C201.4 113.8 200.5 114.5 201.7 113.5C201.7 113.5 201.5 113.7 201.7 113.5ZM195.2 116.3L194.8 116.6L195.2 116.3ZM208 110.7L207.4 111.2L208 110.7ZM194.1 116.7C195.1 116.9 195.8 115.4 194.1 116.7C194.1 116.7 193.9 116.8 194.1 116.7ZM196.6 115.6C196.6 115.6 196.6 115.8 196.3 115.9L196.6 115.6ZM194.8 116.4L195.1 116.2C195 116.3 194.7 116.6 194.8 116.4ZM202.3 113.1C204.1 111.9 202.3 113.1 202.3 113.1V113.1ZM202.4 113.1L202 113.3L202.4 113V113.1ZM196 115.5C196.3 115.3 195.1 116.2 196 115.5C196.1 115.5 195.8 115.6 196 115.5ZM210 109.5L209.7 109.8L210 109.6V109.5ZM195.7 115.6C195.7 115.6 195.7 116 195.7 115.6V115.6ZM199.7 113.6C199.9 113.6 199.2 114.7 199.7 113.6C199.8 113.6 199.7 113.8 199.7 113.6ZM196.4 115.2C198 114.3 196.5 114.9 196.4 115.2C196.6 115.1 196.4 115.2 196.4 115.2ZM197.5 114.7C197.9 114.4 197.8 114.7 197.5 114.7C197.5 114.7 197.6 114.7 197.5 114.7ZM196.1 115.2C196.2 114.9 195.6 115.7 196.1 115.2C196.1 115.2 196.1 115.3 196.1 115.2ZM203.9 111.8L203.5 112.1L203.9 111.8ZM198.6 113.8L198.2 114.2C198.2 114 198.4 113.9 198.6 113.8ZM211.4 108.8H211.2C211.2 108.8 211.3 108.7 211.4 108.8ZM199.9 113.1L199.5 113.4L199.9 113.1ZM204.7 111.1L205.3 110.6L204.7 111.1ZM197.5 113.6C197.5 113.6 195.7 114.8 197.5 113.6C197.3 113.8 197.3 113.6 197.5 113.6ZM198.9 113C198.9 113 200.7 111.9 198.9 113C198.9 113 199.3 112.8 198.9 113ZM212.4 108.3C212.7 108.8 211.7 108.3 212.4 108.3C212.4 108.3 212.2 108.3 212.4 108.3ZM205.7 110.3L205.3 110.6L205.7 110.3ZM196.5 114.3C196.5 114.3 196.6 114.2 196.5 114.3C196.3 114.5 196.3 114.3 196.5 114.3ZM199.8 112.6C199.2 113.3 199.3 112.8 199.8 112.6C199.8 112.6 199.5 112.7 199.8 112.6ZM206 110C206.1 110 206 110.2 206 110C206.1 110 206 110 206 110ZM202.7 111.3L202.4 111.6C202.4 111.4 202.6 111.4 202.7 111.3ZM197.8 113.4C197.9 113.4 198.1 113.3 198 113.4C197.9 113.4 197.8 113.5 197.8 113.4ZM206.2 109.8C206.6 109.2 205.6 110.1 206.2 109.8V109.8ZM205.9 109.6C205.8 109.6 205.7 109.9 205.5 109.9L205.9 109.6ZM196 113.8C196.1 113.4 195.4 114.4 196 113.8C196 114 195.8 113.9 196 113.8ZM214.1 108.8H214H214.2H214.1ZM205.1 109.3L204.7 109.6L205 109.3H205.1ZM209.2 107.6C209.4 107.5 209.2 107.7 209.1 107.8L209.2 107.6ZM205.7 108.8C207.2 106.8 205.7 109.3 205.7 108.8C205.9 108.6 205.7 108.9 205.7 108.8ZM215.5 109.9L215.2 109.6C215.3 109.6 215.6 109.8 215.5 109.9ZM199.6 111.1L199.2 111.3L199.6 111.1ZM203.4 109.1C204.5 108.8 202.9 109.8 203.4 109.1C203.5 109.1 203.3 109.2 203.4 109.1ZM210.4 106.3C210.5 106.3 209.6 107.1 210.4 106.3C210.6 106.3 210.3 106.4 210.4 106.3ZM202.5 108.8L202.1 109.3L202.5 108.8ZM206.6 107.2L206.3 107.4L206.6 107.2ZM205.1 107.7C205.008 107.869 204.869 108.008 204.7 108.1L205.1 107.7ZM206.3 107C208.3 106 205.9 107.6 206.3 107C206.6 107 206.3 107.2 206.3 107ZM210.8 105.5L210 105.8L210.8 105.5ZM203.3 108C203.1 108.3 202.9 108.2 203.3 108C203.3 108 203.2 108 203.3 108ZM202.7 108.5C202.1 108.5 203.1 107.9 202.7 108.5C202.7 108.5 202.8 108.4 202.7 108.5ZM203.5 108C203 108.1 203.8 108 203.5 108C203.3 108 203.5 108 203.5 108ZM206.7 106.4C206.6 106.5 206.5 106.7 206.3 106.7L206.7 106.4ZM206.2 106.9C206.3 106.7 206 106.9 206.2 106.7C206.4 106.7 206.4 106.7 206.2 106.9ZM207.3 106.3C208.3 104.8 207.7 106.7 207.3 106.3C207.4 106.2 207.3 106.3 207.3 106.3ZM215.4 107.1C214.8 107.1 214.9 106.7 215.4 107.1C215.3 107.1 215.2 107 215.4 107.1ZM217.4 112.4L217.5 112.6C217.5 112.6 217.4 112.4 217.5 112.4H217.4ZM203.8 107.7L203.4 107.9L203.8 107.7ZM214.7 106.2C214.5 106.2 214.3 106.2 214.1 106L214.7 106.2ZM205.4 106.5C203.9 107.3 205.6 106.5 205.4 106.5C205.3 106.5 205.2 106.5 205.4 106.5ZM213.4 105.4C215.4 105.6 213.4 105.4 213.4 105.4C213.6 105.4 213.3 105.4 213.4 105.4ZM208.7 105.2L209 105C208.9 105.2 208.5 105.3 208.7 105.2ZM206 106C205.8 106.3 205.3 106.3 206 106C206 106 205.9 106 206 106ZM209.8 104.6C209.6 104.7 209.5 104.9 209.3 104.9L209.8 104.6ZM211.7 104.4C211 104.7 210.8 104.3 211.7 104.4C211.4 104.4 211.5 104.4 211.7 104.4ZM210.3 104.7C210.5 104.7 210.8 104.4 211 104.5L210.3 104.7ZM206.7 105.7L206.3 105.9L206.7 105.6V105.7ZM210.7 104.4C210.5 104.4 210.4 104.4 210.2 104.6L210.7 104.4ZM211.5 104.1C209.9 104.6 212.1 104.1 211.5 104.1C211.1 104.1 211.6 104.1 211.5 104.1ZM206.3 105.3L205.7 105.9L206.3 105.3ZM208.1 104.7L207.8 104.9C207.8 104.9 207.9 104.7 208.1 104.7ZM207.5 104.6C208.5 104 206.9 106 207.5 104.6C207.9 104.4 207.5 104.8 207.5 104.6ZM213 104.3C213 104.3 214.8 104.6 213 104.3C213.2 104.3 213.6 104.4 213 104.3ZM213.1 104.1C212.3 104.3 212.9 104 213.1 104.1C213.1 104.1 213 104.1 213.1 104.1ZM210.4 103.7C210.4 103.7 209.4 104.3 210.4 103.7C210.6 103.7 210.3 103.8 210.4 103.7ZM209.2 103.8C209.3 103.8 209.3 103.8 209.2 104C208.8 104.1 208.9 104 209.2 103.8ZM212.8 103.9L213.4 104H212.8V103.9ZM210.3 103.4C211.5 103.3 207.8 104.7 210.3 103.4C210.5 103.4 210 103.5 210.3 103.4ZM212.5 103.2C208.5 102.2 212.1 103.9 212.5 103.2C212 103.1 212.5 103.2 212.5 103.2ZM212 103.2C211.6 103.3 211 103.2 212 103.2C211.9 103.2 211.7 103.2 212 103.2ZM214.7 103.4C215.7 104 214.6 103.4 214.7 103.4V103.4ZM219 107.1C218 106.2 219 107.1 219 107.1V107.1ZM220.5 112.5L220.4 112.3L220.5 112.5ZM219 107C218.2 106.5 219.2 106.6 219 107C219 106.9 219 107 219 107ZM219.3 107C219.5 107.3 219.2 107.1 219.1 107C219.1 107 219.1 106.9 219.3 107ZM217.8 105C218.7 106.4 217.3 104 217.8 105C217.8 105.2 217.8 105 217.8 105ZM219.3 107C219.1 106.9 218.8 106.4 219.3 107C219.3 107 219.2 107 219.3 107ZM219.7 108C220 108.2 219.9 108.2 220 108.5L219.7 108ZM220.1 108.6C220.3 109.1 219.6 108.4 220.1 108.6C220.1 108.7 220.1 108.6 220.1 108.6ZM221.1 114.1C222.1 116.6 220.9 114.8 221.1 114.1C221.1 114 221.1 114.1 221.1 114.1ZM220 107.8C220.6 109.2 220 107.8 220 107.8C220.1 108.1 219.9 107.7 220 107.8ZM219 105.8C218.8 105.8 218.6 105.6 218.5 105.5C218.7 105.5 218.9 105.7 219 105.9V105.8ZM220.8 109.9C220.4 109.5 220.7 109.6 220.8 109.9C220.8 109.9 220.8 109.8 220.8 109.9ZM221.8 111.4L220.4 108.7C222.4 110.7 221.7 111.7 221.9 111.4C221.9 111.2 221.9 111.4 221.9 111.4H221.8ZM222.1 111.5C222.2 111.5 222.8 113.4 222.1 111.5C222.1 111.5 222.1 111.8 222.1 111.5ZM218.9 106C220.1 107 218.9 106.6 218.9 106C219 106 218.9 106 218.9 106ZM220.2 108.1L220 107.8L220.2 108.1ZM220.8 109.1L220.5 108.6C220.5 108.8 220.7 108.9 220.8 109.1ZM220 107.1L219.6 106.7C219.8 106.7 219.9 106.9 220 107V107.1ZM221.8 116.4L221.6 116.1C221.6 115.9 221.8 116.2 221.8 116.4ZM222 116.9C221.4 117 221.9 115.4 222 116.9C221.9 116.9 222 116.7 222 116.9ZM221.6 110.5L221.3 110L221.6 110.5ZM221.5 109.3C221.36 109.202 221.255 109.062 221.2 108.9C221.4 109 221.4 109.2 221.5 109.3ZM222.3 112.6C222.7 113.8 222.3 112.5 222.3 112.6C222.3 112.8 222.3 112.5 222.3 112.6ZM222.5 113.7C222.5 114.5 221.8 112.7 222.5 113.7C222.5 113.8 222.5 113.6 222.5 113.7ZM222.6 113.1C222.6 113.1 221.8 112.1 222.6 113.1C222.6 113.1 222.5 112.9 222.6 113.1ZM227 128.4C227 128.4 225.9 127.8 227 128.4C227.3 128.5 226.9 128.3 227 128.4ZM222.7 119C223.2 119.9 222.7 119.2 222.7 119C222.8 119.2 222.8 119.3 222.7 119ZM222.9 114.8C222.1 112.4 224.2 116 222.9 114.8C222.8 114.6 222.9 114.9 222.9 114.8ZM222.7 110.6C223.1 112 223 110.9 222.7 110.6C222.7 110.9 222.7 110.6 222.7 110.6ZM223.1 114.6C223.4 116.3 223.1 114.7 223.1 114.6C223.1 114.9 223 114.4 223.1 114.6ZM223.2 112.6L223 112.2L223.2 112.6ZM223.4 112.2C223.1 111.8 223.1 110.7 223.4 112.2C223.4 112.1 223.4 111.9 223.4 112.2ZM223.3 115.9C223.3 115.9 223.5 116.3 223.3 116.2V115.9ZM223.5 114.7L223.3 114.1L223.5 114.7ZM223.5 112.7C223.2 112.3 223.5 111.7 223.5 112.7C223.5 112.7 223.5 112.6 223.5 112.7ZM224 118C223.3 116.6 223.5 115.5 224 118C223.8 117.7 223.9 117.5 224 118ZM231.6 129.4H231H231.7H231.6ZM224.3 122.4C224.3 122.6 224 122.4 224.3 122.4C224.3 122.5 224.3 122.4 224.3 122.4ZM223.8 113.9C223.1 112.4 223.7 113.1 223.8 113.9C223.7 113.6 223.8 113.6 223.8 113.9ZM223.8 118.9L223.6 118.2L223.8 118.8V118.9ZM223.8 118.3C224 120 224 118.3 223.8 118.3C223.9 118.6 223.8 118.3 223.8 118.3ZM224 114.3C223.9 114.2 224 113.7 224 114.3C223.9 114.3 224 114.2 224 114.3ZM224.2 115.3L224 114.8L224.2 115.3ZM224.1 118.3C224.3 118.7 224.3 119 224.1 118.3C224.2 118.6 224.1 118.6 224.1 118.3ZM224.3 114.7C224.6 116.4 224.2 114.7 224.3 114.7C224.3 115 224.2 114.7 224.3 114.7ZM224.4 116C224.1 115.9 224.1 114.7 224.4 116C224.4 116 224.4 115.7 224.4 116ZM224.7 119.9C224.6 119.7 224.2 119.1 224.4 119.2L224.7 119.9ZM225 121C224.916 120.913 224.848 120.811 224.8 120.7L225 121ZM225.1 121C225.1 120.7 224.6 120.1 224.8 120C224.8 120.4 225.1 120.8 225.1 121ZM225.7 122.5C225.608 122.419 225.539 122.316 225.5 122.2L225.7 122.5ZM225.7 122.1C226 123.6 225.7 122.1 225.7 122.1C225.7 122.4 225.6 122 225.7 122.1ZM225.8 122.1C226.2 123.2 226.2 122.3 225.8 122.1C225.9 122.4 225.7 122.1 225.8 122.1ZM226.8 123.3C226.684 123.261 226.581 123.192 226.5 123.1C226.5 123.1 226.8 123.1 226.8 123.3ZM226 120.5L225.8 120.1L226 120.5ZM226 120.4L225.9 120.1L226 120.4ZM226.2 121C226.2 121 226 120.7 226.2 121C226.2 121 226.1 120.8 226.2 121ZM226.4 120.8C226 120.8 226.2 120.3 226.4 120.8C226.4 120.8 226.3 120.5 226.4 120.8ZM228 124.5L227.7 124.3L228 124.5ZM226.6 121.5L226.4 121.2L226.6 121.4V121.5ZM227.7 124C229.2 125 228.6 124.6 227.7 124C227.9 124 228 124.2 227.7 124ZM229 124.8C228.5 124.3 228.5 124.8 229 124.8C229.2 124.9 228.8 124.8 229 124.8ZM229.5 124.8C229.4 124.8 228.7 125.2 229.5 124.8C229.7 124.9 229.4 124.8 229.5 124.8ZM230.5 125.3H230.1H230.5ZM244.2 120.4C244.7 119.2 244.5 120.6 244.2 120.4V120.4ZM233 125C233.1 125 231.8 125.3 233 125C233.2 125 232.8 125 233 125ZM244.8 119.8C246.1 117.6 245 120 244.8 119.8C244.9 119.6 244.8 119.8 244.8 119.8ZM245.8 118.5C245.6 118.5 245.6 118.7 245.5 118.8L245.7 118.5H245.8ZM232.8 123.8L232.4 123.9H232.7L232.8 123.8ZM233.4 123.5C233.7 122.8 233.7 123.6 233.4 123.5C233.4 123.4 233.3 123.5 233.4 123.5ZM233.6 123.3L233 123.5L233.6 123.3ZM247.5 115.5L247.9 114.8L247.5 115.5ZM234.2 122.9C234.7 122.9 233.5 123.4 234.2 122.9C234.2 122.9 234.1 123 234.2 122.9ZM235 122.7L235.2 122.6L235 122.7ZM234.5 122.6C234.8 122.5 234.1 123 234.5 122.6C234.6 122.6 234.5 122.6 234.5 122.6ZM249 113.4C248.9 113.8 248.3 113.9 249 113.4C249 113.4 248.8 113.4 249 113.4ZM236.3 121.8C236.4 121.4 236.2 121.8 236.3 121.8V121.8ZM249.6 112.8H249.4C249.4 112.7 249.7 112.5 249.6 112.8ZM237.2 121C237.6 120.3 237.4 120.9 237.2 121C237.2 120.9 237.2 121 237.2 121ZM250.6 110.8C251.4 110.2 250.2 111.5 250.6 110.8C250.7 110.8 250.5 111 250.6 110.8ZM238 120C239.1 119.2 238.2 120 238 120C238.2 119.9 238.1 120 238 120ZM251.2 110.2V110.4C251.2 110.4 251.1 110.4 251.2 110.2ZM238.7 119.3C239.4 118.9 238.4 119.9 238.7 119.3C238.9 119.3 238.7 119.6 238.7 119.3ZM251.6 110C251.6 110.2 251.5 110.3 251.4 110.3C251.4 110.2 251.4 110.1 251.6 110ZM239 119C238 120.3 238.7 119 239 119C238.8 119.2 239 119 239 119ZM239.3 118.7C239.1 119.5 238.5 119.4 239.3 118.7C239.3 118.7 239.1 118.8 239.3 118.7ZM252.3 109C252 109.6 251.5 109.7 252.3 109C252.3 109.2 252.1 109.2 252.3 109ZM239.5 118.2C239.8 118 239.5 118.9 239.5 118.2C239.5 118.2 239.5 118.3 239.5 118.2ZM240 117.8L240.3 117.4C240.3 117.6 240.1 117.9 240 117.8ZM240.6 116.8C241.1 116 240.6 116.8 240.6 116.8V116.8ZM241.3 116L241 116.4C241 116.2 241.3 115.9 241.3 116ZM241.3 116C241.6 115.7 241.3 116.1 241.3 116C241.3 116 241.3 116.1 241.3 116ZM241.9 115.1C241.816 115.358 241.679 115.596 241.5 115.8L241.9 115.1ZM241.9 114.9L241.6 115.5L241.9 114.9ZM242.8 113.9C242.3 114.2 243.2 114.4 242.8 113.9V113.9ZM244.3 111.3C244.4 110.9 244.1 111.5 244.3 111.3V111.3ZM264 100.3C265.1 100.8 262.8 100.6 264 100.3C264.1 100.3 263.8 100.3 264 100.3ZM265.9 101C265.7 100.9 265.3 100.9 265.4 100.8L265.9 101ZM273.9 119.4C273.7 119.2 273.8 119 273.9 119.4C273.6 119 273.8 119.2 273.9 119.4ZM273.5 119C273.4 118.1 273.5 119 273.5 119C273.5 119 273.6 119.2 273.5 119ZM270.8 104.3C271.6 104.8 271 104.6 270.8 104.3C270.9 104.4 270.8 104.4 270.8 104.3ZM274 120.2C274 120.5 273.3 119.5 274 120.2C274 120.3 273.9 120.1 274 120.2ZM271.5 105.2C271.3 105 271.3 105.2 271.1 104.9L271.5 105.2ZM274.1 120.3C274.4 120.7 274.1 120.6 274.1 120.3C274.1 120.4 274.1 120.4 274.1 120.3ZM278.8 119.3L278.6 118.7L278.8 119.3ZM279.1 120L278.9 119.3L279.1 120ZM279.3 120.3C279.2 120.1 279.2 119.7 279.3 120.3C279.3 120.3 279.3 120.2 279.3 120.3ZM286.5 123.5C286.7 123.5 284.5 126.4 286.5 123.5C286.7 123.5 286.3 123.9 286.5 123.5ZM287.5 122.5C287.6 122.4 286.2 124.6 287.5 122.5C287.5 122.5 287.3 122.8 287.5 122.5ZM282 124.6C282 124.8 281.9 124.9 282 124.6V124.6ZM288.4 121.2C287.1 123.3 287.9 121.6 288.4 121.2C288.1 121.6 288 121.6 288.4 121.2ZM282.4 123.6C282.4 123.6 282.7 123.7 282.4 123.6V123.6ZM290.9 118.4C290.9 118.4 290.6 119.3 290.9 118.4C291.1 118.3 290.9 118.5 290.9 118.4ZM288.7 119C289.5 118.4 288.7 118.8 288.7 119C288.9 119 288.7 119 288.7 119ZM286.4 119.5C286.4 119.5 286.4 119.7 286.2 119.8C286.2 119.6 286.5 119.4 286.4 119.5ZM287.4 118.5L286.9 119L287.4 118.4V118.5ZM288.1 117.7L287.8 118L288.1 117.7ZM287.8 117.5C288.1 117.4 287.8 117.7 287.8 117.5C288 117.5 287.8 117.5 287.8 117.5ZM294.3 111L294.1 111.4C294.1 111.4 294.1 111.1 294.3 111V111Z" fill="black"/>
<path fill-rule="evenodd" clip-rule="evenodd" d="M220.1 106.5C222.4 107.8 221.2 107.9 220.1 106.5C220.1 106.5 220.2 106.6 220.1 106.5ZM191 125.3C191.2 125.3 191.3 125.1 191.4 125L191 125.3ZM198 119C197.6 119.5 198.5 118.8 198 119C197.8 119.2 198 119 198 119ZM190.8 122.2C191 122 191.4 121.9 190.8 122.2C190.7 122.3 191 122.1 190.8 122.2ZM193.9 120.8C193.9 120.8 194.5 120.5 193.9 120.8V120.8ZM193.2 120.8C193 120.8 193 121.2 193.2 120.8V120.8ZM200 117.9C202.5 117 199.4 116.7 200 117.9C200.2 117.8 200 117.9 200 117.9ZM192.6 120.9C194.8 118.9 192.9 119.9 192.6 120.9C193.1 120.4 192.6 120.7 192.6 120.9ZM186 123.2C186.2 123.4 185.9 123.2 186 123.2V123.2ZM193.7 120L194.1 119.6C193.9 119.6 193.8 119.9 193.7 120ZM201.5 116.3C201.5 116.2 201.9 116.3 201.5 116.3C201.4 116.3 201.5 116.3 201.5 116.3ZM190.5 120.5C190.8 120 189.8 120.4 190.5 120.5C190.5 120.5 190.4 120.5 190.5 120.5ZM195.4 117.5C196.4 116.5 195.4 117.5 195.4 117.5C195.6 117.3 195.4 117.5 195.4 117.5ZM206 112.7C205.9 112.7 206.2 112.7 206 112.7C206 112.7 206.1 112.7 206 112.7ZM206.8 112.2C207.5 111.8 207.5 111.4 206.8 112.2C207 112.1 206.9 112 206.8 112.2ZM207.6 111.4C206.9 111.7 207.5 111 207.6 111.4C207.5 111.4 207.6 111.4 207.6 111.4ZM193.6 115.8C193.6 115.8 194.4 115.2 193.6 115.8V115.8ZM197.6 113C198.2 111.7 198.6 112.6 197.6 113C197.6 113 197.8 112.9 197.6 113ZM199.7 111.4C200.8 110.7 199.9 111.2 199.7 111.4C199.9 111.4 199.9 111.2 199.7 111.4ZM208.7 106.8C209 106.5 209.3 106.6 208.7 106.8C208.7 107 208.8 106.8 208.7 106.8ZM204.3 107.8C204.2 107.8 206.1 106.8 204.3 107.8V107.8ZM205.7 107C205.3 106.9 207.5 106 205.7 107C205.7 107 205.9 106.8 205.7 107ZM205.2 107C205.4 106.8 206.1 106.7 205.2 107C205 107.2 205.3 107 205.2 107ZM207.4 105.4C207.3 105.4 206.6 106.2 207.4 105.4C207.4 105.4 207.2 105.6 207.4 105.4ZM209.9 103.3C209.9 103.6 210.2 103.4 209.9 103.3V103.3ZM215 104.3C214.8 104.2 215.5 104.5 215 104.3C215 104.2 215.1 104.3 215 104.3ZM219 109.5C219.3 110.2 219.4 109.9 219 109.5V109.5ZM217.8 104.4C217.6 104.1 218.8 104.2 217.8 104.4C217.7 104.2 217.9 104.4 217.8 104.4ZM218.5 105C221.5 107.4 220.2 105.6 218.5 105C218.6 105 218.7 105 218.5 105Z" fill="black"/>
<path fill-rule="evenodd" clip-rule="evenodd" d="M218.1 104.3C218.1 104.1 221.8 108.6 218.1 104.3C218.1 104.3 218.4 104.6 218.1 104.3ZM221.5 108C221.7 108.1 221.8 108.3 221.9 108.6L221.5 107.9V108ZM223.1 111C223.6 113.2 223.6 112.3 223.1 111C223.1 111.3 223.2 111.2 223.1 111ZM223.2 110.8C223.4 110.8 223.5 112.1 223.2 110.8C223.2 110.8 223.2 111 223.2 110.8ZM223.7 112.7L224 113.8C224.2 113.6 223.9 113.1 223.7 112.8V112.7ZM225.3 118C225.5 118.9 225.5 118.3 225.3 118C225.3 118.1 225.3 118.1 225.3 118ZM226.5 120.2C226 119.8 226.5 120.6 226.5 120.2V120.2ZM227.7 122C227.7 122 228.6 123 227.7 122C227.7 122.2 227.8 122.2 227.7 122ZM230.5 123.5C231.1 123.8 231.5 123.7 230.5 123.5C230.4 123.5 230.5 123.5 230.5 123.5ZM236 121.6C237 121.3 236.5 120.8 236 121.6C236.3 121.6 236.2 121.4 236 121.6ZM239.3 118.1L239.7 117.6L239.3 118.1ZM242.4 114.3C242.4 113.9 241.9 114.8 242.4 114.3C242.4 114.2 242.2 114.5 242.4 114.3ZM258.1 100.1C258.1 100.2 259.6 99.8 258.1 100.1C258.1 100.1 258.3 100.1 258.1 100.1ZM270 112.1C270.6 113.1 271.8 114.4 270 112.1C270.2 112.3 270.4 112.5 270 112.1ZM280.2 121C280.7 121.7 280.2 120.7 280.2 121C280.4 121.3 280.2 120.8 280.2 121ZM281 123C281 123.2 281.2 123.1 281 123C281 123.2 281.1 123 281 123ZM190 146.9L190.2 146.6L190 146.9ZM190 146.5L190.3 146.2L190.1 146.5H190ZM190.9 145.9C191.2 145.6 191 145.5 190.9 145.9C190.9 145.8 190.9 145.8 190.9 145.9ZM194.2 143.7C194.5 143.4 194.4 143.3 194.2 143.7C194.2 143.7 194.2 143.6 194.2 143.7ZM190.5 146C190.5 145.6 190.8 145.7 190.5 146C190.5 146 190.5 145.9 190.5 146ZM194.6 143.3C195 143 194.6 143.3 194.6 143.3C194.7 143.3 194.6 143.3 194.6 143.3ZM192.4 144.1C192.4 144.2 192.6 144.1 192.6 143.9L192.4 144.1ZM195.8 142.3C197.5 140.9 195.6 142 195.8 142.3V142.3ZM192.8 143.8C193.1 143.4 192.8 143.6 192.8 143.8C192.8 143.8 192.8 143.6 192.8 143.8ZM192.8 143C192.9 143 193 142.9 193 142.7L192.8 143ZM198.5 140.6L198.7 140.4L198.5 140.6ZM193.7 142.1C193.8 142.1 194 142 194 141.8L193.7 142.1ZM197.5 140C198.6 139.4 197.2 139.9 197.5 140C197.7 140 197.5 140 197.5 140ZM194.6 141C194.6 140.8 194.4 141 194.3 141C194.3 141.2 194.5 141 194.6 141ZM195.8 140C196.7 139.2 195.6 140.2 195.8 140C195.9 139.9 195.8 139.9 195.8 140ZM200.4 139C200.4 139.2 200.6 139 200.7 139H200.4ZM200.5 138.6C199.7 138.5 200.7 139.2 200.5 138.6C200.5 138.6 200.5 138.7 200.5 138.6ZM202.8 138.8H203.1H202.8ZM194.5 140C194.7 140 194.8 139.7 194.5 140V140ZM195.6 139.5L195.9 139.4L195.6 139.5ZM195.2 139.4C196.6 139.1 196.3 138.2 195.2 139.4C195.2 139.4 195.4 139.3 195.2 139.4ZM192.1 140.5L192.5 140.2L192.1 140.5ZM192 140.5L192.3 140.3C192.1 140.3 192.1 140.4 192 140.5ZM192.5 140.1C192.8 139.6 192.2 140.3 192.5 140.1C192.6 140 192.5 140.1 192.5 140.1ZM202.7 138C202.7 138.1 203 138 203.1 138H202.7ZM190.7 140.6C190.9 140.6 191 140.3 191.1 140.1L190.7 140.6ZM204.1 138C204.1 137.9 203.9 137.8 203.8 137.9H204.1V138ZM194.9 138.5L195.2 138.2C195.2 138.4 195 138.4 194.9 138.5ZM198 137.6C197.6 137.3 199.7 137 198 137.6C198 137.6 198.1 137.6 198 137.6ZM192.8 139.1C193 139.1 193.1 138.9 193.3 138.8L192.8 139.1ZM204.8 138C206.3 138 205.1 137.7 204.8 138C204.8 138 204.9 137.9 204.8 138ZM196.6 137.4C196.8 137.4 196.9 137 196.6 137.4V137.4ZM205.6 138C205.9 137.8 206.1 138.1 205.6 138V138ZM206 138C207 138.3 206.2 138 206 138C206.2 138 206.1 138 206 138ZM196.4 136.7C196.6 136.7 196.9 136.4 196.7 136.4L196.4 136.7ZM207.2 138.3C207.7 138.7 208.4 138.3 207.2 138.3C207.2 138.3 207.4 138.3 207.2 138.3ZM203.6 136L204.1 135.9H203.6V136ZM200.6 135.6C200.9 135.5 200.9 135.4 200.6 135.6C200.8 135.6 200.7 135.6 200.6 135.6ZM204.9 135H205.5H204.9ZM201.8 133.6C202.3 133.6 202.2 133.4 201.8 133.6C202 133.6 201.9 133.6 201.8 133.6ZM199.1 133.6L199.7 133.3L199.1 133.6ZM209.3 136.4C209.7 136.7 209.4 136.4 209.3 136.4C209.3 136.4 209.4 136.4 209.3 136.4ZM203 133C204 133.2 204.3 132.6 203 133C203.3 133.1 203.3 133 203 133ZM210.3 136.6C210.7 136.8 210.4 136.6 210.3 136.6C210.3 136.6 210.5 136.6 210.3 136.6ZM206.2 133C206.2 133 207 133.1 207 133H206.2ZM205.9 132.4H206.5H205.9ZM208.9 133.7L209.4 133.9L208.9 133.7ZM210.7 134.6C211.1 134.9 211 134.8 210.7 134.6V134.6ZM211.4 135L211.7 135.2L211.4 135ZM215 141C215.4 141.3 215 141.2 215 141C215 141 214.8 140.7 215 141ZM215.3 141.3C215.4 141.8 215.9 141.5 215.3 141.3C215.3 141.3 215.4 141.3 215.3 141.3ZM215.7 142.2L216 142.4L215.7 142.2ZM213.5 136.8C213.7 137 213.8 136.8 213.7 136.8C213.5 136.6 213.7 136.8 213.5 136.8ZM213.4 136.4C213.6 136.6 213.8 136.9 214 136.9C213.8 136.7 213.7 136.5 213.4 136.4ZM213.8 137C214.8 137.7 213.8 137 213.8 137C214 137.1 213.8 137 213.8 137ZM214.2 137.8C214.5 138 214.6 138.1 214.5 137.8H214.2ZM216.6 143.2L216.8 143.5L216.6 143.2ZM217.9 144.9C219.9 146.3 217.9 144.9 217.9 144.9C218.2 145.1 217.8 144.7 217.9 144.9ZM216.2 139.7C216.3 140 216.4 139.7 216.4 139.9L216.2 139.7Z" fill="black"/>
<path fill-rule="evenodd" clip-rule="evenodd" d="M216.4 139.9L216.7 140.2C216.623 140.08 216.52 139.977 216.4 139.9ZM219.4 146.2C219.7 146.5 219.7 146.3 219.4 146.2C219.4 146.2 219.5 146.2 219.4 146.2ZM218 142.4C218 142.4 218 142.3 218.1 142.4C218 142.2 217.7 142.1 217.9 142.4H218ZM222.8 145.1C222.9 145.3 223.1 145.3 223.2 145.3L222.8 145.1ZM226.1 146.9C226.4 147.1 227.4 147 226.1 146.9C226.3 146.9 226.4 146.9 226.1 146.9ZM227.5 147.3C228.1 147.4 227.7 147.1 227.5 147.3V147.3ZM228 147.5C228.1 147.1 228 147.5 228 147.5V147.5ZM228.6 147.7C229.4 147.5 228.6 147.7 228.6 147.7C228.7 147.7 228.6 147.7 228.6 147.7ZM229.2 147.7C228.9 147.7 229.6 147.9 229.2 147.7V147.7Z" fill="black"/>
<path fill-rule="evenodd" clip-rule="evenodd" d="M229.3 147.7C229.5 147.9 229.6 147.8 229.3 147.7V147.7ZM229.6 147.7H229.9H229.6ZM231.7 148C232.3 147.7 231.7 148 231.7 148C231.8 148 231.6 148 231.7 148ZM233 148C233.2 148.1 233.3 147.9 233 148V148ZM233.6 148C234.6 148 233.8 147.8 233.6 148C233.8 148 233.7 147.9 233.6 148ZM234.1 147.8C234.5 147.8 234.3 147.8 234.1 147.8C234.2 147.8 234.2 147.8 234.1 147.8ZM235 147.9C236.2 147.3 234.6 147.9 235 147.9C235.2 147.8 234.8 147.9 235 147.9ZM235 147.7H235.5H235ZM235.8 147.5C236 147.5 236.1 147.4 235.8 147.5C235.8 147.5 236 147.5 235.8 147.5ZM236.9 147.3C237.1 147.3 237.1 147.1 236.9 147.3C236.9 147.3 236.9 147.2 236.9 147.3ZM247.9 139.8C248.9 139 247.9 139.3 247.9 139.8C248 139.7 247.9 139.8 247.9 139.8ZM250.9 136.4L251.1 136.2C251.1 136.1 250.9 136.2 250.9 136.4ZM255.2 133.6L255.7 133.4L255.2 133.6ZM257.6 132.7C259.6 131.7 257.6 132.7 257.6 132.7C257.8 132.7 257.6 132.7 257.6 132.7ZM263 132.4C263.2 132.4 263.4 132.4 263.6 132.6L263 132.4ZM268 135.5C268.3 135.5 267.8 135.3 268 135.5C268 135.5 267.9 135.5 268 135.5ZM271.7 151.8C272.7 152.8 273.3 152.8 271.7 151.8C271.9 152 271.9 151.9 271.7 151.8ZM273 152.6C273.1 152.8 273.3 152.9 273.5 152.9L273 152.6ZM272.3 143.3C273.3 143.9 272.3 143.3 272.3 143.3C272.3 143.3 272.3 143.2 272.3 143.3ZM272.7 144.5C272.7 144.5 272.8 144.7 272.8 144.5C272.8 144.4 272.7 144.4 272.7 144.5ZM272.8 144.1C273 144.2 272.8 144.6 272.8 144.1C272.8 144.1 272.8 144.2 272.8 144.1ZM278.4 148.8C278.6 148.8 278.7 148.6 278.4 148.8C278.5 148.8 278.4 148.8 278.4 148.8ZM278.9 148.6H279.1H278.9ZM279.4 148.7C280.4 148.7 280.9 148.4 279.4 148.7C279.6 148.7 279.6 148.7 279.4 148.7ZM280.4 148.5L280.8 148.4L280.4 148.5ZM280.9 148.4L281.3 148.3H280.9V148.4ZM281.3 148.4C281.9 148.2 281.7 148.1 281.3 148.4C281.5 148.4 281.4 148.3 281.3 148.4ZM281.3 147.5C281.4 147.2 281.7 147.5 281.3 147.5C281.3 147.5 281.4 147.5 281.3 147.5ZM283 147.5C284.2 146.5 283.4 147.4 283 147.5C283 147.5 283.2 147.4 283 147.5ZM282 147.3L282.5 147L281.9 147.3H282ZM283.9 147C284.2 146.8 284.5 146.5 283.9 147C283.9 147 284 146.9 283.9 147Z" fill="black"/>
<path fill-rule="evenodd" clip-rule="evenodd" d="M284 146.8C284.2 146.8 284.4 146.6 284.5 146.5C284.3 146.5 284.3 146.6 284.1 146.8H284ZM285.6 145.9C285.4 146.2 283.9 146.5 285.6 145.9C285.6 145.9 285.3 145.9 285.6 145.9Z" fill="black"/>
<path fill-rule="evenodd" clip-rule="evenodd" d="M284.8 146.3L285.4 145.8C285.2 145.8 285 146.1 284.8 146.3ZM285.2 145.8L285.5 145.5L285.2 145.8ZM285.4 145.8L285.9 145.4L285.4 145.8ZM286.3 145.2C286.1 145.3 286.3 145.1 286.4 145C287.1 145 286.8 144.6 286.4 145.2C286.2 145.4 286.1 145.3 286.4 145.2H286.3ZM287.1 144.5C287.3 144 287.7 144.2 287.1 144.5C287.1 144.5 287.3 144.4 287.1 144.5ZM287.5 144.3C287.6 144.3 287.8 144 287.6 144.1V144.3H287.5ZM287.6 144C287.6 144 288.5 143.4 287.6 144C287.6 144.1 287.7 144 287.6 144ZM188.7 148.3C190.3 147.5 189.2 146 188.7 148.3C188.7 148.3 188.7 148.1 188.7 148.3ZM191.3 145.6C192 145 191.6 145 191.3 145.6C191.5 145.5 191.4 145.4 191.3 145.6Z" fill="black"/>
<path fill-rule="evenodd" clip-rule="evenodd" d="M192 144.8C193.5 142.8 195.7 140.5 196.3 140.6C196.1 141.1 200.4 138.1 200.5 138.2C200.5 138.4 200.7 138.4 200.8 138.2L199.8 138.8C218.2 141.7 232.5 164.1 252.3 142.2C239.9 149.2 233 159.7 217.8 148.4C209.1 141.9 212.4 138.8 203.2 138.4C200.713 138.551 198.382 139.662 196.7 141.5L197 141.3C198 140.5 199 139.9 200.3 139.4C200.1 139.6 200.2 139.6 200.5 139.4C200.131 139.533 199.791 139.737 199.5 140C211.5 135 217.4 155.8 234.3 154.2C248.2 153 254.8 133.7 265.7 141.8C271.2 145.8 267.7 152.1 276.1 153.6C275.3 153.5 275.1 153.5 275.7 153.6C274.9 153.6 274.4 153.2 273.7 153C282.6 159 294.2 144.4 299.9 139.2C299.5 139.2 299.5 139.2 299.9 139C297.9 139.6 295.7 140.4 294.3 143C294.5 142.6 294.4 142.6 294.1 142.8C294.7 142 294.1 142.9 293.9 143C293.6 142.5 297.9 139.5 299.8 138.3C297.8 138.6 295.8 140.9 295 140.6C296.7 139.2 305.3 136.5 305.6 135.7C303.6 135.1 299.5 136.4 300.1 135.9C299.2 135.9 298.5 136.9 297.7 137L289.7 142.5C289.5 140.5 290.3 143 290 141.8C289.3 141.8 287.5 144.3 286.8 145.2C286.8 144.7 286.7 144.9 286.3 145.8C287.3 145.3 286.5 144.7 288 144.2C287.3 146.2 283.8 147.2 282.6 147.8L283.2 147.6C278.4 147.1 277.6 150 273 145.2C271 143 270.4 135 263.7 132.6L264.7 133.1C259.3 131.8 251.9 132.9 248.3 139.3C248.8 138.8 248.9 138.5 249.4 138.3C246.3 140.8 242.3 146 241.5 145.9C241.5 145.9 240.3 146.5 240.1 146.4C240.3 146.4 241.5 145.6 241.4 145.4C241.4 145.5 240.7 145.9 240.9 145.9C240.3 146.2 240.8 145.9 240.8 145.9C238.4 146.2 240.7 146.6 238.2 146.9C238.5 146.8 238.5 146.9 238.1 147.2C238.3 146.9 238.2 146.9 237.9 147.2L237.7 147.3C238.064 147.261 238.41 147.122 238.7 146.9C238.4 147 238.4 147 238.7 146.9C238.7 147.2 237.2 147.6 237.1 147.6C237.9 147.7 236.7 147.9 236.7 147.9C237 147.9 237 147.6 237.5 147.3C232.4 146.4 226.6 148.3 221.8 144.6C221.8 142.8 212.1 133.4 208.4 132.9L210.3 133.7C209.5 133.3 209.4 133.3 210 133.6C207.8 133.3 205.8 132.8 203 132.7L204 132.6C202.2 132.7 201.4 132.6 199.7 133.4C203.9 131.8 206.1 133.2 210.6 134.2C210.2 134.2 210.1 134.1 210.1 133.9C210.9 134 213.7 136.1 215.5 138.4C215.5 138.5 219.9 142.8 219.6 144C219.5 144 219.4 144 219.6 143.9C219 143.3 219 143.3 219.4 143.9C219.019 143.355 218.545 142.881 218 142.5C218.3 143.7 217.6 142.2 216.7 141.1C217.3 141.1 217.7 141.5 217.7 142.3C217.2 142.1 200.9 126.3 201 133.9C199.7 134.7 196.7 135.9 196.2 136C195.7 135.8 196.1 135.6 197.2 135.5C196.2 136 196 136.1 196.8 135.8C194.8 137.4 191.8 137.8 191.1 140.1C191.3 139.9 192.3 139.2 191.6 139.9C191.6 139.7 195.4 136.5 195.9 136.9C195.4 137.3 194.9 137.4 194.6 137.9C195.8 136.2 197.6 135.5 199.1 135.3C197.1 136.4 194.5 136.8 192.7 139.9C193.969 139.363 195.098 138.542 196 137.5C213.4 136.2 208.6 138.1 222.9 148.5C222.5 148.3 222.5 148.4 222.9 148.6C222.9 148.6 221.9 148.3 222.6 148.6L221.7 148.1C222.1 148.3 222.3 148.1 222.4 148.3C221.2 147 216 140.2 212 138C211.7 137 204.6 134.5 201.5 136C201.5 135.4 199.3 136.8 199 136.8C199.2 137 199 137.1 198.7 137.1C197.6 137.6 200.7 136.6 200.9 136.4C200.3 136.4 196.9 138.1 196.5 138.7C196.6 138.7 196.2 138.8 195.9 139.3C197 138.3 200.1 136.4 202.4 136.6L201.9 136.7C198.6 139.1 192.9 144.2 191.9 144.7C191.9 144.8 192.1 144.6 191.9 144.7L192 144.8ZM204.9 137.6H205.3C205.2 137.7 205 137.6 204.9 137.6ZM213.8 144.1C212.5 143.5 213.7 143.3 213.8 144.1C213.6 144.1 213.8 143.9 213.8 144.1ZM294.8 140.9C295 140.7 294.8 140.7 295.1 140.6L294.9 140.9H294.8ZM293.8 139.6C295.8 137.9 293.9 139.8 293.8 139.6C294 139.4 293.8 139.6 293.8 139.6ZM274 146.8L273.8 146.5L274 146.8ZM266.9 134.8C266.9 134.6 266.5 134.4 266.7 134.4C266.7 134.5 267.1 134.8 266.9 134.7V134.8ZM254.8 134L255.2 133.8L254.8 134ZM205.2 132.6H204.5H205.2ZM209.4 134.4C209.1 134.8 207.8 133.1 209.4 134.4C209.4 134.4 209.2 134.2 209.4 134.4ZM193 138.6C193.2 138.1 193.5 138.4 193 138.6C193 138.6 193.1 138.6 193 138.6ZM212.7 139L212.1 138.4C212.3 138.5 212.6 138.7 212.7 139ZM205.2 135.7H204.7H205.2ZM200.8 136.3L200.6 136.4L200.8 136.3ZM192.8 143.5C192.2 144 193.1 143.7 192.8 143.5V143.5ZM197.4 139.7L197.1 139.9C197.2 139.7 197.4 139.7 197.4 139.7ZM202.4 137.8C202.4 137.9 202.2 138 202.1 137.9H202.5L202.4 137.8ZM203.6 137.6H203H203.5H203.6ZM194.6 138.6C194.9 138.4 195.1 138.1 195.4 138L194.7 138.5L194.6 138.6ZM206.5 138.6H206.2H206.5ZM201.6 137.1H201.2C201.3 137.1 201.6 137 201.6 137.1ZM194.6 138.3C194.4 138.3 194.3 138.6 194.3 138.4C194.3 138.4 194.6 138.2 194.5 138.4L194.6 138.3ZM194.8 138.1C195.3 138.1 194.8 138.1 194.8 138.1C194.8 138.1 194.7 138.1 194.8 138.1ZM195.6 137.7C195.4 137.7 195.3 137.9 195.2 138C195.2 137.8 195.4 137.7 195.6 137.7ZM201.3 136.4C201.7 136.2 201.1 136.4 201.3 136.4C201.3 136.4 201.4 136.4 201.3 136.4ZM196.8 136.8C196.5 137 196.3 137 196.8 136.8C196.8 136.8 196.7 136.8 196.8 136.8ZM193.9 137.8L193.6 138L193.9 137.7V137.8ZM202.2 136.1C203.5 136.1 202.2 136.5 202.2 136.1C202.5 136.1 202.2 136.2 202.2 136.1ZM206.5 137.7H206H206.4H206.5ZM201 136.2C201.2 136.4 201 136.2 201 136.2C201 136.2 200.8 136.2 201 136.2ZM195.2 136.8C195.2 136.8 193.7 137.8 195.2 136.8C195.1 137 194.9 137 195.2 136.8ZM198 136.1L197.6 136.3L198 136.1ZM196 136.5C196.8 136.5 196.4 135.9 196 136.5C195.9 136.5 196.1 136.5 196 136.5ZM204.6 136C204.6 135.5 202.8 136.6 204.6 136C204.6 136 204.8 136 204.6 136ZM198.3 136C198.6 135.6 198.1 136 198.3 136C198.3 135.8 198.3 136 198.3 136ZM209.1 140C209.1 140.1 208.9 140 208.9 140H209.1ZM208.3 138.4L208 138.3L208.3 138.4ZM197.6 135.6C197.2 135.9 197.4 135.6 197.6 135.6C197.6 135.6 197.4 135.6 197.6 135.6ZM199.4 135.2C199.4 135.2 198 135.9 199.4 135.2C199.4 135.2 199.2 135.2 199.4 135.2ZM197.7 135.5C198.1 135 198.1 135.3 197.7 135.5V135.5ZM200.3 135.1C200.2 135 200 135.1 199.8 135.2C199.8 135 200.4 134.9 200.3 135.1ZM200.6 135C201.5 134.8 200.4 135.3 200.6 135C200.8 135 200.6 135 200.6 135ZM202 135C201.827 135.13 201.616 135.2 201.4 135.2L202 135ZM198.4 135.2C199.5 134.4 198.9 135.2 198.4 135.2C198.6 135.1 198.4 135.2 198.4 135.2ZM205.7 135.9C205.4 135.9 204.4 135.8 205.7 135.9C205.7 135.9 205.5 135.9 205.7 135.9ZM199.4 134.9L199 135C199 135 199.4 134.8 199.4 135V134.9ZM209.8 139.4C209.6 139.4 209.5 139.2 209.3 139.1L209.8 139.4ZM198.4 135C199.3 135.5 200.3 134.3 198.4 135C198.4 135 198.2 135.1 198.4 135ZM201 134.8L200.6 135C200.9 135 200.6 134.9 201 134.8ZM199 134.9H199.4H199.1H199ZM206.4 136.1C208.2 136.6 206.4 136.3 206.4 136.1C206.5 136.1 206.4 136.1 206.4 136.1ZM206.6 136.1H206H206.5H206.6ZM200.3 134.6C200.8 134.5 199.3 134.9 200.3 134.6C200.5 134.6 200.2 134.6 200.3 134.6ZM210.8 140.8C210.7 140.8 210.6 140.8 210.5 140.6C210.7 140.6 210.7 140.7 210.8 140.8ZM200 134.5C200.1 134.5 200 134.8 200 134.5C200.1 134.5 200 134.5 200 134.5ZM204.3 134.7C204.5 134.7 203.3 135.2 204.3 134.7C204.4 134.7 204.2 134.8 204.3 134.7ZM200.8 134.3C202.6 134.3 201.1 134.2 200.8 134.3C201.1 134.3 200.8 134.3 200.8 134.3ZM202 134.3C202.5 134.3 202.3 134.5 202 134.3C202 134.3 202.1 134.4 202 134.3ZM200.6 134.3C200.8 134 200 134.4 200.6 134.3C200.6 134.2 200.5 134.3 200.6 134.3ZM208 136.4H207.6C207.7 136.3 208 136.4 208 136.4ZM203.3 134.2L202.8 134.3H203.3V134.2ZM212 142L211.8 141.8C211.8 141.8 212 141.8 212 142ZM204.9 134.4H204.4H204.9ZM208.9 136.7L209.5 137C209.3 137 208.8 136.8 209 136.7H208.9ZM202.6 133.4C202.6 133.4 200.5 133.4 202.6 133.4C202.4 133.5 202.4 133.4 202.6 133.4ZM204.1 133.8C204.1 133.8 206.2 133.8 204.1 133.8C204.1 133.7 204.6 133.8 204.1 133.8ZM213 143C212.9 143.7 212.2 142 213 143C213 143 212.8 142.7 213 143ZM209.9 137.2C209.8 137.2 209.6 137.2 209.5 137L209.9 137.2ZM201.4 133.5C201.4 133.5 201.5 133.5 201.4 133.5C201.2 133.7 201.2 133.5 201.4 133.5ZM205.1 133.9C204.1 134.1 204.6 133.9 205.1 133.9C205.1 133.9 204.8 133.9 205.1 133.9ZM210.1 137.4C210.2 137.4 210.1 137.5 210.1 137.4C210.2 137.4 210.1 137.4 210.1 137.4ZM207.8 135C208 135.2 207.6 135 207.4 135H207.8ZM202.9 133.4H203.1H202.9ZM210.3 137.4C210.8 137.4 210 137 210.3 137.4C210.3 137.4 210.3 137.3 210.3 137.4ZM210.3 137.1C210.3 136.9 210.1 137 210 136.8C210.1 136.8 210.5 137 210.4 137.1H210.3ZM201.2 132.8C201.5 132.5 200.3 133 201.2 132.8C201.1 132.8 201 132.8 201.2 132.8ZM214.7 145.2L214.4 145C214.6 145 214.6 145.1 214.7 145.2ZM210.5 136.2C210.4 136.2 210.3 136.2 210.2 136C210.4 136 210.4 136.1 210.5 136.2ZM212.7 139.6L212.5 139.5H212.7V139.6ZM211.1 136.6C213.3 137.4 210.7 136.8 211.1 136.6C211.3 136.8 211.1 136.7 211.1 136.6ZM216.2 147.1L215.8 146.6C216 146.7 216.3 147 216.2 147.1ZM206 132.7H205.6C205.7 132.6 206.1 132.7 206 132.7ZM210.2 134.7C211 135.7 209.2 134.6 210.2 134.7C210.2 134.8 210 134.7 210.2 134.7ZM214 140.4C214 140.4 213.2 140 214 140.4C214 140.5 213.9 140.3 214 140.4ZM210 133.8C209.756 133.777 209.519 133.709 209.3 133.6C209.6 133.6 209.8 133.6 210 133.8ZM212.9 137.2C212.779 137.173 212.672 137.102 212.6 137L212.9 137.2ZM212.1 135.9C211.907 135.852 211.733 135.747 211.6 135.6C211.8 135.6 211.9 135.8 212.1 135.9ZM212.9 136.9C214.1 138.6 212.4 136.6 212.9 136.9C213.1 137.1 212.9 136.9 212.9 136.9ZM214.9 140.4L214.4 139.9L214.8 140.4H214.9ZM211.2 134.2C210.7 134.1 210.8 133.9 211.2 134.2C211.1 134.2 211.1 134.2 211.2 134.2ZM210.4 133.9C210.1 133.3 211.2 133.9 210.4 133.9C210.4 133.8 210.5 133.9 210.4 133.9ZM211.2 134.4C211 134 211.4 134.7 211.2 134.4C211.2 134.3 211.2 134.4 211.2 134.4ZM213.5 137.1L213.3 136.9L213.5 137.1ZM213.1 136.7C213.2 136.8 213.1 136.6 213.2 136.7C213.3 136.9 213.2 136.9 213.1 136.7ZM213.7 137.7C215.1 138.3 213.4 138.1 213.7 137.7C213.8 137.7 213.7 137.7 213.7 137.7ZM216.6 144.3C216 144.1 216.2 143.7 216.6 144.3C216.4 144.3 216.5 144.1 216.6 144.3ZM219.5 149.8L219.6 149.9L219.5 149.8ZM211.7 134.6C211.555 134.517 211.42 134.416 211.3 134.3L211.7 134.6ZM216.4 143.3L216 142.9C216.2 142.9 216.3 143.1 216.4 143.3ZM213.4 135.9C212.2 134.6 213.4 136.1 213.4 135.9C213.2 135.8 213.4 135.7 213.4 135.9ZM216 141.9C216.8 143.2 216 141.9 216 141.9C216.1 142.1 216 141.9 216 141.9ZM214.8 138.5L215 138.8C214.8 138.8 214.7 138.5 214.8 138.5ZM213.9 136.4C213.6 136.2 213.5 135.8 213.9 136.4C213.9 136.4 213.9 136.3 213.9 136.4ZM215.4 139.2L215.1 139L215.4 139.2ZM216 140.4C215.5 140.1 215.9 139.9 216 140.4C215.9 140.3 216 140.2 216 140.4ZM215.4 139.6L215.8 140C215.6 140 215.4 139.7 215.4 139.6ZM214.3 137C214.1 137 214.1 136.8 214 136.7C214.2 136.7 214.2 136.9 214.3 137ZM215.8 139.8L215.5 139.5L215.8 139.8ZM216.2 140.1C215.4 139.6 216.2 140.3 216.2 140.1C216 140 216.2 140.1 216.2 140.1ZM216.5 140.7L216 140C216.2 140 216.5 140.5 216.6 140.7H216.5ZM214.5 136.6L214 136L214.6 136.6H214.5ZM215.2 137.9L215 137.8L215.2 137.9ZM215.2 137.5C215.7 138 214.2 137.3 215.2 137.5C215.4 137.7 215.2 137.5 215.2 137.5ZM216.6 141.1L216.8 141.5L216.6 141.1ZM216.8 141.1C216.3 140.6 216.8 141 216.8 141.1C216.8 141.1 216.8 140.9 216.8 141.1ZM216.2 139.2C216.2 139.3 215.6 138.9 216.2 139.2C216.3 139.4 216.2 139.2 216.2 139.2ZM216 138.5C216 138.5 216 138.6 215.8 138.5C215.8 138.3 215.8 138.3 216 138.5ZM216.8 140.8C216.9 140.8 217 141 216.9 141.1L216.8 140.8ZM216.5 139.1C216.7 139.5 215.3 138.2 216.5 139.1C216.5 139.1 216.4 138.9 216.5 139.1ZM217.2 140.1C217.2 139.8 216.7 139.5 216.7 139.3C216.9 139.6 217.4 140.1 217.2 140.1ZM217.1 139.9C216.8 139.7 216.8 139.5 217.1 139.9C217 139.9 217 139.7 217.1 139.9ZM218.1 141.1C218.1 141.7 218.1 141.1 218.1 141.1V141.1ZM219.7 144.4L219.4 144.1L219.7 144.4ZM222 148.1C222.1 148.2 221.9 148.1 221.8 148.1H222ZM219.7 144.3C219.1 144 219.9 144 219.7 144.3C219.6 144.3 219.7 144.3 219.7 144.3ZM219.9 144.3C219.9 144.4 219.8 144.3 219.7 144.3C219.7 144.3 219.7 144.2 219.9 144.3ZM219.3 142.7C219.3 143.3 219 142.5 219.3 142.7C219.3 142.8 219.3 142.7 219.3 142.7ZM220 144.2C219.8 144.1 219.6 143.8 220 144.2V144.2ZM220.3 144.9C220.5 144.9 220.3 145 220.5 145.2L220.3 144.9ZM220.6 145.3C220.6 145.3 220.4 145.3 220.6 145.3V145.3ZM223.2 148.7C225.4 149.5 223.5 149.2 223.2 148.7V148.7ZM220.4 144.7C220.8 145.7 220.4 144.7 220.4 144.7C220.5 144.9 220.4 144.7 220.4 144.7ZM219.9 143.4L219.6 143.1L219.9 143.4ZM221.2 146.1C220.8 145.9 221.2 146 221.2 146.1V146.1ZM222.4 146.5C222.6 146.5 219.8 145.4 221.4 145.5C222 146.9 222.4 146.2 222.4 146.5C222.5 146.5 222.4 146.4 222.4 146.5ZM222.7 146.5C222.7 146.3 223.8 147.3 222.7 146.5C222.7 146.5 222.8 146.5 222.7 146.5ZM219.9 143.4L220.3 143.8C220.1 143.7 219.8 143.5 219.9 143.4ZM220.6 144.8L220.5 144.6L220.6 144.8ZM221.2 145.3C221 145.3 220.8 145.1 220.9 145.1L221.2 145.3ZM220.5 144C220.5 144 220.3 144 220.3 143.8L220.5 144ZM225.1 149.6H224.8H225.1ZM225.5 149.7C225.3 150.2 224.5 148.9 225.5 149.7C225.5 149.7 225.4 149.7 225.5 149.7ZM222 145.9C222 145.9 221.6 145.8 221.7 145.7L222 145.9ZM221.7 145.2L221.5 145C221.5 145 221.7 145 221.7 145.2ZM223.3 146.9C224 147.4 223.1 146.9 223.3 146.9C223.3 146.9 223.2 146.9 223.3 146.9ZM223.9 147.4C224.3 147.8 223 147.4 223.9 147.4C223.9 147.4 223.8 147.4 223.9 147.4ZM223.7 147C223.7 147 222.8 147 223.7 147C223.7 147 223.5 147 223.7 147ZM235.3 153.4C235.5 153.4 234.3 153.6 235.3 153.4C235.5 153.4 235.2 153.4 235.3 153.4ZM227.4 150.2C228.2 150.2 227.6 150.2 227.4 150.2C227.6 150.2 227.7 150.3 227.4 150.2ZM224.8 148C223.3 147.3 225.8 147.7 224.8 148C224.6 147.9 224.9 148 224.8 148ZM222.8 145.5C223.4 146.1 223.2 145.5 222.8 145.5C223 145.7 222.8 145.5 222.8 145.5ZM224.8 147.7C225.5 148.1 225.1 147.7 224.8 147.7C224.8 147.7 224.6 147.7 224.8 147.7ZM223.9 146.4H223.6H223.9ZM223.9 146C223.4 146 223.2 145.5 223.9 146C223.8 146 223.7 145.9 223.9 146ZM225.6 148.2C225.6 148.2 226 148.2 225.9 148.3C225.8 148.3 225.5 148.3 225.6 148.2ZM225.1 147.4L224.7 147.2L225.1 147.4ZM224.1 146.4C223.8 146.3 223.7 145.8 224.1 146.4C224.1 146.4 224.1 146.2 224.1 146.4ZM227.3 148.7C226.1 148.6 225.5 147.9 227.3 148.7C227.1 148.7 226.9 148.5 227.3 148.7ZM238.5 152.9C238.3 152.9 238.2 153.1 238 153L238.5 152.9ZM230.5 150.9C230.6 150.9 230.3 151.1 230.5 150.9V150.9ZM224.8 146.7C223.8 146.4 224.2 146.2 224.8 146.7C224.6 146.6 224.6 146.6 224.8 146.7ZM227.8 149.3C227.6 149.3 227.2 149.3 227.2 149.1L227.8 149.3ZM227.5 148.9C228.7 149.7 227.5 148.9 227.5 148.9C227.7 149.1 227.5 148.9 227.5 148.9ZM225 146.7C224.8 146.7 224.7 146.4 225 146.7V146.7ZM225.6 147L225.3 146.9L225.6 147ZM227.5 148.7C227.7 148.7 228.1 148.9 227.5 148.7C227.7 148.7 227.7 148.7 227.5 148.7ZM225.4 146.7C226.4 147.2 225.3 146.7 225.4 146.7V146.7ZM226.1 147.2C226 147.3 225.3 146.8 226.1 147.2C226.1 147.2 226 147.1 226.1 147.2ZM229 149C228.8 149 228.3 149 228.4 148.9L229 149ZM230.2 149.4H229.8H230.2ZM230.2 149.3C228.9 148.9 229.9 149 230.2 149.3V149.3ZM231.6 149.8H231.3H231.6ZM231.3 149.5C232.3 150.3 231.4 149.5 231.3 149.5C231.6 149.7 231.2 149.5 231.3 149.5ZM231.4 149.5C232.4 149.8 231.8 149.3 231.4 149.5C231.7 149.5 231.3 149.5 231.4 149.5ZM232.8 149.5H232.5H232.8ZM230.3 148.3H230H230.3V148.3ZM230.3 148.3C230.2 148.3 229.9 148.3 230 148.2H230.3V148.3ZM230.8 148.4C230.8 148.4 230.6 148.4 230.8 148.4C230.8 148.4 230.6 148.4 230.8 148.4ZM230.8 148.1C230.5 148.4 230.4 148 230.8 148.1C230.8 148.1 230.5 148.1 230.8 148.1ZM234.3 149.7H234H234.2H234.3ZM231.3 148.4H231H231.3V148.4ZM233.9 149.4C235.5 149.2 234.9 149.4 233.9 149.4C234.1 149.4 234.2 149.4 233.9 149.4ZM235.3 149.4C234.7 149.2 234.9 149.7 235.3 149.4C235.6 149.4 235.2 149.5 235.3 149.4ZM235.8 149.2C235.6 149.2 235.3 149.9 235.8 149.2C236 149.2 235.7 149.3 235.8 149.2ZM236.8 149.3C236.7 149.4 236.6 149.5 236.5 149.4H236.8V149.3ZM249.2 146C249.8 145 249.4 146.2 249.2 146C249.2 145.9 249.2 146 249.2 146ZM238.8 148.5C239.1 148.5 238.5 148.8 238.5 148.7C238.7 148.7 238.6 148.6 238.8 148.5ZM249.7 145.5C251 143.7 249.9 145.6 249.7 145.5C249.8 145.2 249.7 145.5 249.7 145.5ZM250.7 144.5C250.5 144.5 250.5 144.6 250.4 144.7L250.6 144.4L250.7 144.5ZM238.5 147.4H238H238.4H238.5ZM239.1 147C239.4 146.2 239.2 147.1 239.1 147C239.1 146.9 239 147 239.1 147ZM239.3 146.8C238.5 147.5 238.8 146.8 239.3 146.8C239.1 146.9 239.2 146.8 239.3 146.8ZM252.3 142.1C252.5 142.1 252.7 141.7 252.8 141.7C252.7 141.8 252.5 142.2 252.4 142.1H252.3ZM240 146.5C240.4 146.5 239.3 146.9 240 146.5C240 146.5 239.8 146.5 240 146.5ZM240.7 146.3C240.7 146.3 240.8 146.2 240.9 146.3C240.9 146.3 240.6 146.4 240.7 146.3ZM240.3 146.1C240.3 146.1 240.1 146.5 240.3 146.1V146.1ZM253.9 140.7C253.8 141.1 253.4 140.9 253.9 140.7C253.9 140.7 253.8 140.7 253.9 140.7ZM241.9 145.7C241.9 145.4 241.9 145.6 241.9 145.7C241.9 145.7 241.8 145.7 241.9 145.7ZM254.5 140.3H254.4C254.4 140.3 254.6 140.2 254.5 140.3ZM242.7 145.1C243.1 144.7 242.9 145.1 242.7 145.1V145.1ZM255.7 139.1C256.3 138.9 255.2 139.6 255.7 139.1C255.7 139.1 255.5 139.3 255.7 139.1ZM243.5 144.3C244.5 143.8 243.6 144.3 243.5 144.3C243.7 144.3 243.5 144.3 243.5 144.3ZM256.3 138.7V138.9C256.1 138.9 256.1 138.8 256.3 138.7ZM244 143.8C244.7 143.5 243.6 144.3 244 143.8C244.2 143.8 243.9 144 244 143.8ZM256.4 138.6L256.2 138.8C256.2 138.7 256.2 138.6 256.4 138.6ZM244.4 143.4C243.4 144.4 244 143.4 244.4 143.4C244.2 143.6 244.3 143.4 244.4 143.4ZM244.6 143.2C244.4 143.9 243.8 143.8 244.6 143.2C244.6 143.3 244.5 143.3 244.6 143.2ZM257.1 138.2C256.7 138.5 256.4 138.4 257.1 138.2C257.1 138.2 257 138.2 257.1 138.2ZM244.7 142.9C245 142.8 244.7 143.5 244.7 142.9C244.7 142.9 244.7 143 244.7 142.9ZM245.2 142.7L245.5 142.4L245.2 142.7ZM245.8 141.9C246.3 141.2 245.8 141.9 245.8 141.9V141.9ZM246.5 141.3L246.2 141.6L246.5 141.3ZM246.5 141.3C246.8 141.1 246.5 141.4 246.5 141.3C246.5 141.3 246.5 141.4 246.5 141.3ZM247.2 140.7L246.7 141.2L247.2 140.7ZM247.2 140.4C247.2 140.6 247 140.8 246.8 140.9L247.2 140.4ZM248 139.8C247.6 139.8 248.3 140.2 248 139.8V139.8ZM249.8 137.7C249.9 137.4 249.6 137.7 249.8 137.7C249.8 137.7 249.7 137.7 249.8 137.7ZM268.8 136.6C269.2 137.4 267.8 136.2 268.8 136.6C268.8 136.7 268.6 136.6 268.8 136.6ZM269.5 138C269.5 137.8 269.2 137.6 269.4 137.6L269.5 138ZM277.3 153.8C277.2 153.8 276.6 153.5 277.3 153.8C276.8 153.8 277.1 153.7 277.3 153.8ZM276.7 153.8C275.7 153.5 276.7 153.8 276.7 153.8C276.7 153.8 277 153.8 276.7 153.8ZM271.6 142.1C272 142.6 271.6 142.4 271.6 142.1C271.6 142.2 271.6 142.2 271.6 142.1ZM278.3 154C278.5 154 277.3 154.4 278.3 154C278.4 154 278.1 154 278.3 154ZM272 143C271.9 142.9 271.8 143 271.8 142.8L272 143.1V143ZM278.4 154C278.9 153.8 278.7 154 278.4 154C278.6 154 278.5 154 278.4 154ZM279.1 149.2H278.7C278.8 149.1 279.1 149.1 279.1 149.2ZM279.6 149.1H279.1H279.6ZM279.9 149.1C279.6 149.1 279.6 149 279.9 149.1C279.9 149.1 279.8 149 279.9 149.1ZM292 144.7C292.3 144.7 290 147 292 144.7C292.2 144.7 291.8 145 292 144.7ZM293 144C293.1 144 291.6 145.7 293 144C293 144 292.8 144.2 293 144ZM286 146.2C286 146.2 285.8 146.5 285.6 146.5L286 146.2ZM293.9 143C292.4 144.8 293.7 143.2 293.9 143C293.6 143.3 293.4 143.3 293.9 143ZM287.9 144.1C288.2 143.8 288.2 144.1 287.9 144.1C288 144.1 288.2 144.1 287.9 144.1ZM296.5 141.1C296.5 141.1 296.1 141.8 296.5 141.1C296.6 141.1 296.5 141.2 296.5 141.1ZM294.5 141.1C295.2 140.7 294.4 140.9 294.5 141.1V141.1ZM292.2 141.1L292 141.2L292.2 141V141.1ZM293.2 140.2C293.064 140.395 292.895 140.564 292.7 140.7L293.3 140.2H293.2ZM294 139.7C294 139.8 293.9 139.9 293.7 139.9L294 139.7ZM293.8 139.5C294.1 139.5 293.8 139.6 293.8 139.5C293.9 139.5 293.8 139.5 293.8 139.5ZM302 136L301.6 136.2L302 136Z" fill="black"/>
<path fill-rule="evenodd" clip-rule="evenodd" d="M220.7 143.6C222.5 144 221.3 144.4 220.7 143.6C220.7 143.6 220.7 143.7 220.7 143.6ZM195.5 142.6L195.7 142.3C195.7 142.3 195.5 142.4 195.5 142.6ZM201.1 138.4C200.8 138.6 201.6 138.4 201.1 138.4C201.1 138.4 201.2 138.4 201.1 138.4ZM194.8 139.7C195 139.5 195.4 139.4 194.8 139.7C194.8 139.8 195 139.6 194.8 139.7ZM197.6 138.7C197.6 138.7 198.1 138.6 197.6 138.7V138.7ZM197 138.7C196.8 138.6 196.8 139 197 138.7V138.7ZM203 138.3C204.7 138.9 202.8 137.3 203 138.3V138.3ZM196.5 138.6C198.5 137 196.6 138 196.5 138.6C196.7 138.4 196.5 138.5 196.5 138.6ZM204.7 138.6H205.4H204.7ZM190.5 140.8C190.7 141 190.3 140.8 190.5 140.8V140.8ZM197.4 138L197.8 137.7L197.4 138ZM204.3 137.9C204.4 137.9 204.5 138.1 204.3 137.9V137.9ZM194.5 138C194.7 137.6 193.8 138 194.5 138C194.5 138 194.4 138 194.5 138ZM199.3 136C200.5 135.4 199.3 136 199.3 136C199.5 136 199.3 136 199.3 136ZM208 138.7C208 138.5 208.2 138.7 208 138.7C208 138.7 208.1 138.7 208 138.7ZM208.6 139C209.1 139.5 209.1 139.1 208.6 139C208.7 139.1 208.7 139 208.6 139ZM209.2 139.3C209 139 209.4 139.3 209.2 139.3V139.3ZM198 133.9C198.1 133.9 199.1 133.5 198 133.9C198 133.9 198.2 133.9 198 133.9ZM203.1 132.9C204.4 132.2 204.1 133.2 203.1 132.9C203.1 132.9 203.4 132.9 203.1 132.9ZM205.9 133C207.3 133.3 206.1 133 205.9 133C206.1 133 206.1 133 205.9 133ZM213.3 139C213.7 139.2 213.6 139.5 213.3 139C213.2 139 213.3 139.1 213.3 139ZM211.7 135C211.7 135.1 213.4 136.5 211.7 135C211.7 135.1 211.8 135.2 211.7 135ZM213 136.3C213 136.4 214 137.5 213 136.3C213 136.3 213 136.5 213 136.3ZM212.7 135.8C213 135.9 213.3 136.6 212.7 135.8C212.5 135.7 212.7 135.9 212.7 135.8ZM214.6 137.6C214.5 137.4 213.8 137.1 214.6 137.6C214.6 137.5 214.4 137.4 214.6 137.6ZM216.5 138.7C216.3 138.8 216.5 138.9 216.5 138.7V138.7ZM217.7 141.8C217.7 141.7 217.9 142.1 217.7 141.8V141.8ZM219.7 146.5C220 146.9 220.2 146.7 219.7 146.5V146.5ZM219.6 142.2C219.6 142.1 220 142.2 219.6 142.2C219.6 142.1 219.6 142.2 219.6 142.2ZM219.8 142.7C221.2 144.3 221 143 219.8 142.7C220 142.8 220 142.7 219.8 142.7ZM219.8 142.2L220.5 143L219.8 142.2ZM221.7 144.2L222 144.5L221.7 144.2ZM223.2 145.4C224.2 146.4 224 145.9 223.2 145.4C223.4 145.5 223.4 145.4 223.2 145.4ZM223.3 145.2C223.4 145 223.9 145.8 223.3 145.2C223.3 145.2 223.3 145.3 223.3 145.2ZM224.3 146L224.9 146.4C224.9 146.2 224.5 146.1 224.3 146ZM228 147.6C228.7 147.8 228.3 147.5 228 147.6C228.1 147.6 228.1 147.6 228 147.6ZM230.2 147.7C230 148 230.2 147.8 230.2 147.7V147.7ZM232.4 148C232.4 148 233.6 148 232.4 148C232.4 148 232.5 148 232.4 148ZM236 147.6C236.8 147.6 237.2 147.6 236 147.6C235.8 147.6 236 147.6 236 147.6ZM241.6 145.4C242.4 145.3 242 144.8 241.6 145.4C241.8 145.4 241.7 145.3 241.6 145.4ZM244.7 142.8L245.1 142.5C244.9 142.5 244.8 142.7 244.7 142.8ZM247.8 140C247.8 139.6 247.3 140.3 247.8 140C247.8 139.9 247.5 140.1 247.8 140ZM265 133C264.8 133.1 266.2 133.6 265 133C264.8 133.1 265 133.1 265 133ZM269.3 149.1C269.8 149.9 271.8 152.3 269.3 149.1C269.5 149.4 269.7 149.6 269.3 149.1ZM280.5 148.4C281.1 148.1 280.1 148.4 280.5 148.4C280.6 148.4 280.3 148.4 280.5 148.4ZM282 148C282.1 148 282.1 148 282 148C282.2 148 282 148 282 148Z" fill="black"/>
</svg>
