<svg width="123" height="37" viewBox="0 0 123 37" fill="none" xmlns="http://www.w3.org/2000/svg">
<path d="M2.59935 30V9.32339H11.254C12.7703 9.32339 14.1586 9.57939 15.4188 10.0914C16.6791 10.5837 17.7622 11.2926 18.668 12.2181C19.5935 13.1436 20.3025 14.2365 20.7948 15.4968C21.2871 16.7571 21.5332 18.1454 21.5332 19.6617C21.5332 21.178 21.2871 22.5761 20.7948 23.8561C20.3025 25.1164 19.5935 26.2093 18.668 27.1348C17.7622 28.0406 16.6791 28.7496 15.4188 29.2615C14.1586 29.7538 12.7703 30 11.254 30H2.59935ZM7.62081 26.5736L6.94143 25.5693H11.1063C11.9334 25.5693 12.6718 25.4315 13.3216 25.1558C13.9715 24.8604 14.5229 24.4567 14.9758 23.9447C15.4484 23.4327 15.8127 22.8124 16.0687 22.0838C16.3247 21.3552 16.4527 20.5478 16.4527 19.6617C16.4527 18.7756 16.3247 17.9682 16.0687 17.2396C15.8127 16.511 15.4484 15.8907 14.9758 15.3787C14.5229 14.8667 13.9715 14.4729 13.3216 14.1972C12.6718 13.9018 11.9334 13.7541 11.1063 13.7541H6.85282L7.62081 12.8089V26.5736ZM30.8461 30V9.32339H45.2606V13.6064H35.7199V25.717H45.556V30H30.8461ZM33.2091 21.5226V17.4463H43.9314V21.5226H33.2091Z" fill="#1F1F1F"/>
<path d="M54.9005 30V25.7761H58.386V13.5473H54.9005V9.32339H66.9225V13.5473H63.4075V25.7761H66.9225V30H54.9005ZM81.618 30V13.7541H75.4741V9.32339H92.931V13.7541H86.6394V30H81.618Z" fill="#3FB1B5"/>
<path d="M122.062 28.5738C121.179 28.8234 120.392 28.9577 119.701 28.9577C117.397 28.9577 115.842 27.2685 115.055 23.8709H114.959C113.059 27.5373 110.391 29.3608 107.032 29.3608C104.517 29.3608 102.501 28.4203 100.985 26.5199C99.4685 24.6195 98.7198 22.2393 98.7198 19.36C98.7198 16.0007 99.5836 13.3134 101.292 11.2211C103 9.12875 105.323 8.073 108.26 8.073C109.834 8.073 111.255 8.5145 112.483 9.37829C113.712 10.2613 114.652 11.4898 115.305 13.083H115.382L116.744 8.4761H121.659L117.551 18.6881C118.011 21.0684 118.491 22.7 119.029 23.5638C119.489 24.4276 120.142 24.8691 120.948 24.8691C121.409 24.8691 121.774 24.7923 122.1 24.6579L122.062 28.5738ZM113.884 18.5154C113.481 16.3463 112.829 14.6571 111.946 13.5053C111.082 12.3344 110.026 11.7585 108.817 11.7585C107.243 11.7585 105.976 12.4688 105.035 13.87C104.095 15.2905 103.672 17.0373 103.672 19.0912C103.672 20.9724 104.037 22.5272 104.862 23.7941C105.669 25.061 106.763 25.6753 108.126 25.6753C109.277 25.6753 110.333 25.1186 111.274 24.0629C112.233 22.9687 113.021 21.3755 113.654 19.2832L113.884 18.5154V18.5154Z" fill="#1F1F1F"/>
</svg>
