<svg width="19" height="24" viewBox="0 0 19 24" fill="none" xmlns="http://www.w3.org/2000/svg">
<path fill-rule="evenodd" clip-rule="evenodd" d="M19 6.75V21C19 21.7956 18.714 22.5587 18.205 23.1213C17.696 23.6839 17.0056 24 16.2857 24H14.9286V22.5H16.2857C16.6457 22.5 16.9908 22.342 17.2454 22.0607C17.4999 21.7794 17.6429 21.3978 17.6429 21V6.75H14.9286C14.3887 6.75 13.8709 6.51295 13.4891 6.09099C13.1073 5.66903 12.8929 5.09674 12.8929 4.5V1.5H5.42857C5.06863 1.5 4.72344 1.65804 4.46893 1.93934C4.21441 2.22064 4.07143 2.60218 4.07143 3V16.5H2.71429V3C2.71429 2.20435 3.00025 1.44129 3.50928 0.87868C4.01831 0.316071 4.7087 0 5.42857 0L12.8929 0L19 6.75ZM2.17143 17.775H0V23.7735H1.0735V21.7605H2.16329C2.55279 21.7605 2.88393 21.675 3.15671 21.501C3.43221 21.3255 3.64257 21.0885 3.78507 20.79C3.93298 20.4768 4.00807 20.1278 4.00357 19.7745C4.00357 19.3995 3.93164 19.0605 3.78914 18.759C3.6474 18.4593 3.4307 18.2109 3.16486 18.0435C2.89343 17.8635 2.56364 17.775 2.17143 17.775V17.775ZM2.91107 19.7745C2.91596 19.9721 2.87632 20.168 2.79571 20.3445C2.7234 20.4982 2.61083 20.6242 2.47271 20.706C2.31473 20.7924 2.13998 20.8346 1.96379 20.829H1.06943V18.72H1.96514C2.261 18.72 2.49307 18.81 2.66 18.9915C2.82693 19.1745 2.91107 19.4355 2.91107 19.7745ZM4.56271 17.775V23.7735H6.54414C7.08836 23.7735 7.54029 23.6535 7.89857 23.418C8.26114 23.1782 8.54427 22.8159 8.70607 22.3845C8.8825 21.9345 8.97207 21.3915 8.97207 20.7585C8.97207 20.1285 8.88386 19.5915 8.70607 19.146C8.54617 18.7196 8.26576 18.3618 7.90671 18.126C7.54843 17.892 7.09379 17.775 6.54279 17.775H4.56271V17.775ZM5.63621 18.7425H6.40029C6.73686 18.7425 7.011 18.8175 7.22679 18.9705C7.45077 19.1324 7.61975 19.3719 7.70721 19.6515C7.81443 19.953 7.86736 20.3295 7.86736 20.781C7.87156 21.0802 7.84054 21.3787 7.77507 21.669C7.72672 21.898 7.63617 22.1135 7.50907 22.302C7.39099 22.4702 7.23454 22.6007 7.05579 22.68C6.84633 22.7666 6.62387 22.8084 6.40029 22.803H5.63621V18.7425V18.7425ZM10.716 21.387V23.7735H9.64386V17.775H13.1019V18.7545H10.716V20.43H12.8956V21.387H10.716V21.387Z" fill="#C55D5D"/>
</svg>
