<svg width="18" height="18" viewBox="0 0 18 18" fill="none" xmlns="http://www.w3.org/2000/svg">
<path d="M8.67255 0.951649C8.76351 0.87262 8.87996 0.829102 9.00046 0.829102C9.12097 0.829102 9.23741 0.87262 9.32838 0.951649L10.9517 2.36165C11.0023 2.40561 11.0612 2.43896 11.1249 2.45971C11.1886 2.48047 11.2558 2.48821 11.3225 2.48248L13.4659 2.29582C13.5859 2.28551 13.7056 2.31887 13.8029 2.38975C13.9003 2.46064 13.9688 2.56429 13.9959 2.68165L14.4809 4.77665C14.4959 4.84212 14.5239 4.9039 14.5632 4.9583C14.6026 5.01271 14.6525 5.05863 14.71 5.09332L16.5534 6.20165C16.6565 6.26376 16.7338 6.361 16.771 6.47551C16.8082 6.59002 16.8028 6.71411 16.7559 6.82498L15.9159 8.80498C15.8898 8.86667 15.8763 8.93299 15.8763 8.99998C15.8763 9.06698 15.8898 9.13329 15.9159 9.19498L16.7559 11.175C16.8031 11.286 16.8086 11.4102 16.7713 11.5249C16.7341 11.6396 16.6567 11.737 16.5534 11.7991L14.71 12.9075C14.6526 12.9421 14.6028 12.9879 14.5634 13.0421C14.524 13.0964 14.496 13.158 14.4809 13.2233L13.9959 15.3183C13.9688 15.4357 13.9003 15.5393 13.8029 15.6102C13.7056 15.6811 13.5859 15.7145 13.4659 15.7041L11.3225 15.5175C11.2558 15.5116 11.1887 15.5192 11.125 15.5399C11.0613 15.5605 11.0023 15.5937 10.9517 15.6375L9.32755 17.0483C9.23658 17.1273 9.12013 17.1709 8.99963 17.1709C8.87913 17.1709 8.76268 17.1273 8.67171 17.0483L7.04838 15.6375C6.99775 15.5937 6.93884 15.5605 6.87514 15.5399C6.81144 15.5192 6.74425 15.5116 6.67755 15.5175L4.53421 15.7041C4.41422 15.7145 4.29453 15.6811 4.19716 15.6102C4.09979 15.5393 4.03127 15.4357 4.00421 15.3183L3.51921 13.2233C3.50424 13.1578 3.47623 13.0961 3.43686 13.0417C3.39749 12.9873 3.34755 12.9413 3.29005 12.9066L1.44671 11.7983C1.34357 11.7362 1.26629 11.639 1.22909 11.5245C1.19189 11.4099 1.19726 11.2859 1.24421 11.175L2.08421 9.19498C2.11034 9.13329 2.12381 9.06698 2.12381 8.99998C2.12381 8.93299 2.11034 8.86667 2.08421 8.80498L1.24421 6.82498C1.19703 6.71401 1.19154 6.58973 1.22875 6.47503C1.26596 6.36033 1.34337 6.26295 1.44671 6.20082L3.29005 5.09248C3.34747 5.05789 3.39734 5.0121 3.43671 4.95784C3.47608 4.90359 3.50414 4.84197 3.51921 4.77665L4.00421 2.68165C4.03127 2.56429 4.09979 2.46064 4.19716 2.38975C4.29453 2.31887 4.41422 2.28551 4.53421 2.29582L6.67755 2.48248C6.7443 2.48821 6.81153 2.48047 6.87523 2.45971C6.93894 2.43896 6.99782 2.40561 7.04838 2.36165L8.67255 0.951649V0.951649Z" stroke="black" stroke-width="0.731707"/>
<path d="M6.5 9.8335L8.16667 11.5002L12.3333 7.3335" stroke="black" stroke-width="0.731707" stroke-linecap="round" stroke-linejoin="round"/>
</svg>
