<svg width="311" height="459" viewBox="0 0 311 459" fill="none" xmlns="http://www.w3.org/2000/svg">
<path fill-rule="evenodd" clip-rule="evenodd" d="M306.429 376.162L306.227 375.953L306.429 376.162ZM306.261 375.796C306.261 375.796 306.103 375.762 306.059 375.588C306.216 375.622 306.295 375.639 306.34 375.813L306.261 375.796ZM305.559 375.233C305.216 374.912 305.452 374.963 305.559 375.233C305.48 375.216 305.576 375.154 305.559 375.233ZM302.515 372.929C302.234 372.704 302.302 372.389 302.515 372.929C302.515 372.929 302.453 372.833 302.515 372.929ZM305.874 375.301C305.863 374.969 305.593 375.075 305.874 375.301V375.301ZM302.11 372.512C301.785 372.113 302.127 372.434 302.11 372.512C302.049 372.417 302.11 372.512 302.11 372.512ZM304.099 373.6L303.914 373.313C304.072 373.347 304.038 373.505 304.116 373.522L304.099 373.6ZM301.134 371.313C299.596 369.664 301.359 371.033 301.134 371.313V371.313ZM303.774 373.201C303.448 372.801 303.808 373.043 303.774 373.201C303.774 373.201 303.808 373.043 303.774 373.201ZM303.673 372.52L303.488 372.233C303.567 372.25 303.769 372.458 303.673 372.52ZM298.708 368.814L298.602 368.544L298.787 368.831L298.708 368.814ZM302.899 371.53C302.899 371.53 302.68 371.4 302.714 371.243L302.899 371.53ZM299.721 368.703C298.772 367.757 300.052 368.692 299.721 368.703C299.58 368.59 299.799 368.72 299.721 368.703ZM302.175 370.303L302.456 370.528L302.175 370.303ZM301.243 369.278C300.626 368.322 301.367 369.47 301.243 369.278C301.12 369.087 301.199 369.104 301.243 369.278ZM297.402 366.473L297.2 366.265L297.402 366.473ZM297.408 366.063C298.161 366.39 297.087 366.405 297.408 366.063C297.487 366.08 297.408 366.063 297.408 366.063ZM295.487 364.66C295.33 364.626 295.189 364.513 295.145 364.339L295.487 364.66ZM302.345 369.516C302.188 369.482 302.081 369.212 302.345 369.516C302.266 369.499 302.345 369.516 302.345 369.516ZM301.407 368.902L301.205 368.694C301.222 368.615 301.441 368.744 301.407 368.902ZM301.817 368.908C300.626 368.322 301.032 367.586 301.817 368.908C301.817 368.908 301.694 368.717 301.817 368.908ZM296.089 364.543C296.167 364.56 296.089 364.543 296.089 364.543V364.543ZM304.306 370.351C304.227 370.334 304.07 370.3 304.042 370.047L304.289 370.43L304.306 370.351ZM304.385 370.368L304.183 370.159C304.34 370.193 304.323 370.272 304.385 370.368ZM303.981 369.951C303.751 369.49 304.261 370.176 303.981 369.951C303.981 369.951 304.059 369.968 303.981 369.951ZM295.842 364.16L295.499 363.839C295.533 363.682 295.702 364.048 295.842 364.16ZM305.487 370.605C305.329 370.572 305.284 370.397 305.178 370.127L305.487 370.605ZM294.787 362.944L295.067 363.17C295.067 363.17 294.831 363.119 294.787 362.944ZM302.128 368.234C302.049 368.217 301.819 367.755 301.959 367.868L302.206 368.251L302.128 368.234ZM299.864 366.51C300.23 366.342 298.539 365.401 299.864 366.51C299.864 366.51 299.724 366.398 299.864 366.51ZM303.836 369.096C303.678 369.062 303.555 368.871 303.493 368.775L303.836 369.096ZM294.321 362.432C293.67 361.633 294.008 361.212 294.321 362.432C294.259 362.336 294.248 362.005 294.321 362.432ZM301.028 366.844C300.87 366.81 300.876 366.399 301.028 366.844C300.949 366.827 301.045 366.765 301.028 366.844ZM293.67 361.633C293.597 361.205 293.265 361.216 293.67 361.633C293.748 361.65 293.67 361.633 293.67 361.633ZM293.423 361.25C292.631 360.338 293.316 360.98 293.423 361.25C293.221 361.042 293.378 361.076 293.423 361.25ZM301.287 366.405C301.163 366.214 301.057 365.944 301.197 366.057L301.304 366.327L301.287 366.405ZM292.508 360.147C291.946 359.696 291.756 358.667 292.508 360.147C292.367 360.034 292.401 359.877 292.508 360.147ZM296.249 362.272L296.019 361.81C296.143 362.002 296.283 362.114 296.249 362.272ZM298.485 363.742C298.362 363.551 298.379 363.472 298.485 363.742C298.423 363.646 298.485 363.742 298.485 363.742ZM296.066 360.832L295.757 360.354L296.066 360.832ZM298.639 361.881C298.359 361.656 298.533 361.611 298.639 361.881C298.561 361.864 298.639 361.881 298.639 361.881ZM300.437 363.093C300.279 363.059 300.235 362.884 300.111 362.693L300.437 363.093ZM293.191 357.741C292.832 357.499 293.225 357.584 293.191 357.741C293.191 357.741 293.208 357.663 293.191 357.741ZM298.197 360.88C297.635 360.429 297.816 359.974 298.197 360.88C298.039 360.846 298.152 360.706 298.197 360.88ZM292.889 356.853C292.625 356.549 292.889 356.853 292.889 356.853C292.889 356.853 292.827 356.757 292.889 356.853ZM296.726 358.916L296.401 358.516L296.805 358.933L296.726 358.916ZM297.294 358.956L297.047 358.573L297.294 358.956ZM295.39 357.475L295.126 357.171L295.39 357.475ZM294.397 356.354C294.116 356.129 294.194 356.146 294.397 356.354C294.318 356.337 294.397 356.354 294.397 356.354ZM294.105 355.797L293.824 355.572C293.824 355.572 294.043 355.702 294.009 355.859L294.105 355.797ZM288.611 352.636C288.173 352.376 288.217 352.551 288.611 352.636C288.611 352.636 288.847 352.687 288.611 352.636ZM288.173 352.376C287.666 352.432 287.673 352.022 288.173 352.376C288.173 352.376 288.094 352.359 288.173 352.376ZM287.177 352.409L286.863 352.341L287.177 352.409ZM292.488 354.131C292.348 354.018 292.522 353.974 292.522 353.974C292.645 354.165 292.505 354.052 292.488 354.131ZM292.786 354.278L292.399 353.782L292.865 354.295L292.786 354.278ZM292.303 353.844C291.669 352.966 292.303 353.844 292.303 353.844V353.844ZM291.724 353.472C291.399 353.072 291.32 353.055 291.618 353.202L291.724 353.472ZM285.946 352.39C285.755 352.514 285.659 352.575 285.502 352.541L285.929 352.469L285.946 352.39ZM283.96 353.197C281.834 353.891 283.96 353.197 283.96 353.197C283.612 353.287 284.152 353.074 283.96 353.197ZM289.276 351.462L288.995 351.236L289.293 351.383L289.276 351.462ZM288.995 351.236L288.54 351.056L288.995 351.236ZM282.351 354.167C282.126 354.448 281.985 354.336 282.351 354.167C282.351 354.167 282.272 354.151 282.351 354.167ZM285.38 351.197L285.222 351.164C285.476 351.136 285.79 351.204 285.38 351.197ZM278.938 354.337C278.887 354.573 278.696 354.697 278.617 354.68L278.938 354.337ZM276.622 358.202C276.554 358.517 275.721 359.325 276.622 358.202C276.588 358.359 276.492 358.421 276.622 358.202ZM275.844 359.517C275.585 359.955 275.574 359.623 275.844 359.517V359.517ZM275.647 360.05C275.349 359.904 275.647 360.05 275.647 360.05C275.647 360.05 275.664 359.972 275.647 360.05ZM275.37 360.567C274.701 360.999 275.387 360.489 275.37 360.567C275.275 360.629 275.387 360.489 275.37 360.567ZM274.875 360.955C275.162 360.769 274.79 361.348 274.875 360.955C274.971 360.893 274.875 360.955 274.875 360.955ZM274.858 361.033C274.807 361.269 274.807 361.269 274.858 361.033C274.841 361.112 274.858 361.033 274.858 361.033ZM274.667 361.157L274.52 361.454L274.667 361.157ZM273.462 362.544C272.939 362.678 273.462 362.544 273.462 362.544C273.462 362.544 273.557 362.482 273.462 362.544ZM272.696 363.037C272.567 363.256 272.426 363.144 272.696 363.037C272.679 363.116 272.696 363.037 272.696 363.037ZM272.218 363.346C271.565 363.699 271.982 363.295 272.218 363.346C272.139 363.329 272.139 363.329 272.218 363.346ZM271.886 363.357C271.695 363.48 271.65 363.306 271.886 363.357C271.808 363.34 271.729 363.323 271.886 363.357ZM271.329 363.648C270.385 363.445 271.616 363.463 271.329 363.648C271.172 363.614 271.425 363.587 271.329 363.648Z" fill="black"/>
<path fill-rule="evenodd" clip-rule="evenodd" d="M271.285 363.474L270.953 363.485C270.953 363.485 271.127 363.44 271.268 363.553L271.285 363.474ZM270.717 363.434C270.621 363.496 270.481 363.383 270.717 363.434C270.717 363.434 270.638 363.417 270.717 363.434ZM269.992 363.36C269.817 363.405 269.851 363.247 269.992 363.36V363.36ZM262.791 353.983C262.174 353.026 262.876 353.59 262.791 353.983C262.651 353.87 262.791 353.983 262.791 353.983ZM261.414 350.062L261.307 349.792L261.414 350.062ZM259.136 346.112L258.906 345.651L259.215 346.129L259.136 346.112ZM257.868 344.356L257.419 343.765C257.56 343.878 257.823 344.182 257.789 344.339L257.868 344.356ZM254.426 341.226L253.909 340.949C253.909 340.949 254.303 341.034 254.347 341.209L254.426 341.226ZM249.509 339.588C249.307 339.38 249.745 339.639 249.509 339.588C249.509 339.588 249.666 339.622 249.509 339.588ZM239.931 349.628L239.351 350.409L239.914 349.707L239.931 349.628ZM239.272 350.392C239.238 350.549 239.204 350.706 239.03 350.751L239.272 350.392ZM240.942 342.27C239.469 342.611 240.959 342.191 240.942 342.27C240.942 342.27 240.959 342.191 240.942 342.27ZM239.979 343.297C239.979 343.297 239.788 343.421 239.822 343.263C239.996 343.218 239.979 343.297 239.979 343.297ZM240.064 342.904C239.873 343.027 239.771 343.499 240.064 342.904C240.064 342.904 240.03 343.061 240.064 342.904ZM233.531 351.047C233.429 351.519 233.323 351.249 233.531 351.047C233.497 351.204 233.531 351.047 233.531 351.047ZM233.097 351.53L232.906 351.653C232.94 351.496 233.019 351.513 233.097 351.53ZM232.804 352.126C232.77 352.283 230.726 354.889 232.804 352.126C232.579 352.406 232.466 352.547 232.804 352.126Z" fill="black"/>
<path fill-rule="evenodd" clip-rule="evenodd" d="M232.094 353.125C232.061 353.283 231.886 353.327 231.774 353.468C231.82 353.328 231.904 353.204 232.016 353.108L232.094 353.125ZM231.678 353.529L231.436 353.889C231.436 353.889 231.487 353.653 231.678 353.529ZM231.514 353.906C231.159 354.406 231.115 354.231 231.514 353.906C231.402 354.046 231.402 354.046 231.514 353.906ZM230.806 353.753C230.474 353.764 230.643 354.13 230.806 353.753C230.806 353.753 230.789 353.832 230.806 353.753ZM230.377 354.978C230.141 354.927 230.377 354.978 230.377 354.978V354.978ZM230.373 354.236C230.147 354.517 229.843 354.781 230.373 354.236C230.339 354.393 230.26 354.376 230.373 354.236ZM230.203 355.023C229.994 355.225 230.281 355.04 230.203 355.023V355.023ZM230.011 355.146C230.011 355.146 230.079 354.832 230.011 355.146V355.146ZM230.045 354.989C230.028 355.068 230.045 354.989 230.045 354.989C230.062 354.91 230.045 354.989 230.045 354.989ZM230.079 354.832L230.001 354.815C230.018 354.736 230.001 354.815 230.001 354.815L230.079 354.832ZM230.062 354.91L229.984 354.893L230.062 354.91ZM229.888 354.955L229.922 354.798L229.888 354.955C229.888 354.955 229.871 355.034 229.888 354.955ZM229.843 354.781L229.86 354.702L229.843 354.781ZM307.703 377.507C308.142 377.766 306.755 376.561 306.542 376.021C307.244 376.584 307.597 377.237 307.703 377.507C307.703 377.507 307.659 377.333 307.703 377.507ZM305.121 374.973C304.436 374.332 304.846 374.338 305.121 374.973C304.98 374.861 305.076 374.799 305.121 374.973Z" fill="black"/>
<path fill-rule="evenodd" clip-rule="evenodd" d="M304.548 374.191C302.999 372.21 301.237 369.689 300.765 369.587C300.731 369.744 297.201 365.112 297.97 366.513C293.688 364.601 292.604 355.885 288.652 355.115C281.266 353.851 282.809 360.443 277.76 364.377C268.169 372.19 262.143 363.478 258.726 354.506C262.328 359.565 263.658 369.817 272.752 367.743C281.655 365.793 279.748 354.018 288.461 355.238C293.012 359.75 296.982 364.812 300.281 370.306L300.017 370.002C299.362 369.269 298.694 368.548 298.013 367.84C296.306 365.825 292.898 358.337 289.38 357.084C279.912 353.641 282.147 367.711 271.744 368.596C255.792 370.014 261.284 341.882 246.028 344.272C242.198 344.846 239.774 349.594 237.825 352.138C238.163 351.717 238.259 351.655 238.112 351.953L239.013 350.83C231.683 365.719 224.98 359.002 222.097 346.027C222.282 346.314 222.299 346.235 222.131 345.87C223.443 347.8 224.454 348.842 224.996 351.676C225.063 351.361 225.063 351.361 225.232 351.727C224.946 350.759 225.232 351.727 225.355 351.918C225.659 351.654 223.292 347.356 222.53 345.544C223.619 346.603 224.257 349.375 225.235 349.422C224.59 348.212 220.625 341.016 221.267 340.331C222.075 341.164 223.846 345.169 223.646 343.809C224.848 344.727 224.485 346.789 224.308 344.94C226.863 347.22 225.938 348.832 228.749 352.98C229.612 351.272 228.175 353.35 228.807 352.333C229.587 352.914 229.809 354.938 229.786 355.427C229.786 355.427 229.765 354.764 229.669 354.825C229.698 355.113 229.746 355.399 229.814 355.68C229.848 355.523 231.897 353.659 232.59 352.738C232.526 353.795 233.971 350.154 233.716 351.334C241.982 342.411 240.564 339.059 253.314 340.656C252.971 340.335 255.258 341.57 252.999 340.588C256.947 343.663 261.323 346.666 262.489 353.094C262.629 353.207 262.595 353.364 262.561 353.522C262.304 352.807 262.338 352.65 262.029 352.171C263.762 355.592 265.761 361.212 266.548 361.381C266.531 361.46 267.418 362.31 267.575 362.344C267.575 362.344 266.503 361.207 266.677 361.162C268.166 361.895 267.457 362.895 269.081 362.999C269.126 363.173 268.362 362.514 269.109 363.252C269.03 363.235 269.222 363.111 269.407 363.398C269.092 363.33 268.856 363.279 268.671 362.992C268.89 363.122 268.89 363.122 268.671 362.992C268.603 363.307 270.143 363.804 269.845 363.657C269.322 363.792 270.126 363.883 270.126 363.883L269.564 363.432C271.623 363.053 277.106 357.483 277.028 357.466C276.86 357.1 279.123 354.624 279.416 354.028L279 354.433L280.092 353.186L279.512 353.967C286.324 347.201 293.037 351.202 296.037 357.532C293.477 354.509 296.105 357.217 295.245 356.62C295.626 357.525 297.439 359.811 298.467 360.773L298.035 360.104L299.786 362.293C298.602 360.144 295.855 359.139 294.728 356.344C294.886 356.377 293.124 353.856 291.001 352.245L291.343 352.566C290.765 352.194 288.961 351.393 287.421 350.897C287.691 350.83 287.974 350.834 288.242 350.909C287.568 350.599 283.019 350.688 282.697 352.183C282.854 352.217 282.95 352.155 282.809 352.043C282.618 352.166 284.053 351.241 285.189 351.321C284.075 351.904 285.858 350.889 284.395 351.561C284.48 351.168 287.432 351.228 287.589 351.262L285.616 351.248C289 351.978 300.925 360.068 299.088 362.472C299.452 363.457 301.44 365.697 301.642 365.905C302.069 365.833 301.867 365.625 300.991 365.106L301.316 365.506C302.5 367.655 304.658 367.956 305.021 370.093C304.006 368.762 302.825 367.566 301.506 366.535C301.893 367.03 302.174 367.255 302.404 367.717C301.535 365.635 300.861 365.325 299.676 364.328C301 366.59 302.361 366.39 303.762 369.821C302.719 369.163 301.893 368.211 301.387 367.086C301.353 367.243 301.415 367.339 301.634 367.468C296.47 361.249 286.527 343.21 279.794 357.239C280.036 356.88 280.098 356.975 279.777 357.318C279.794 357.239 280.515 356.571 280.064 357.133C280.064 357.133 280.498 356.65 280.549 356.414C280.402 356.712 280.149 356.739 280.036 356.88C280.714 354.885 288.211 348.761 291.413 355.299C291.177 355.248 296.604 361.772 297.664 363.73C297.957 363.134 299.045 365.345 298.86 365.058C299.074 365.304 299.236 365.592 299.337 365.902C300.005 366.623 298.045 364.635 297.894 364.191C298.956 364.996 300.869 367.962 301.222 368.615C300.122 367.225 298.702 365.024 296.72 363.526C299.059 367.251 301.682 370.79 304.565 374.112C304.706 374.225 304.425 374 304.565 374.112L304.548 374.191ZM294.389 362.117C294.423 361.96 294.186 361.909 294.125 361.813L294.389 362.117ZM286.781 354.629C287.5 355.113 287.102 354.286 286.781 354.629C286.859 354.646 286.893 354.489 286.781 354.629ZM225.246 349.754L225.06 349.467L225.167 349.737L225.246 349.754ZM226.36 349.17C225.474 347.168 226.247 349.311 226.36 349.17C226.315 348.996 226.343 349.249 226.36 349.17ZM237.637 345.756L237.975 345.335L237.637 345.756ZM250.61 339.826C250.689 339.843 251.004 339.911 250.942 339.815L250.627 339.747L250.61 339.826ZM259.383 346.495C259.243 346.382 259.277 346.225 259.119 346.191L259.383 346.495ZM297.428 359.479L297.849 359.817C297.692 359.783 297.524 359.417 297.428 359.479ZM294.778 357.26C294.778 357.26 295.227 357.851 295.182 357.677C294.946 357.626 294.918 357.373 294.778 357.26ZM303.859 368.607C303.786 368.18 303.421 368.348 303.859 368.607C303.876 368.528 303.701 368.573 303.859 368.607ZM290.649 354.64L291.255 355.265L290.649 354.64ZM295.604 361.062L295.868 361.366L295.604 361.062ZM298.226 364.18L298.254 364.433L298.147 364.163L298.226 364.18ZM303.746 372.947C304.448 373.511 303.633 373.088 303.746 372.947C303.825 372.964 303.746 372.947 303.746 372.947ZM300.008 368.518L300.193 368.805L300.008 368.518ZM296.218 364.324L296.482 364.628C296.437 364.453 296.297 364.341 296.218 364.324ZM295.444 363.333L295.769 363.733L295.444 363.333ZM302.442 368.302L301.932 367.615L302.442 368.302ZM292.636 361.08C292.636 361.08 292.821 361.367 292.978 361.401L292.636 361.08ZM297.214 364.291C297.275 364.387 297.32 364.561 297.477 364.595L297.214 364.291ZM302.634 368.178C302.634 368.178 302.74 368.448 302.774 368.291C302.695 368.274 302.589 368.004 302.634 368.178ZM302.449 367.891C301.976 367.789 302.449 367.891 302.449 367.891C302.37 367.874 302.432 367.97 302.449 367.891ZM301.825 367.345L302.072 367.728C302.106 367.57 301.966 367.458 301.825 367.345ZM297.771 364C297.524 363.617 297.894 364.191 297.771 364C297.771 364 297.613 363.966 297.771 364ZM301.051 366.354C301.174 366.546 301.472 366.692 301.051 366.354C301.051 366.354 301.129 366.371 301.051 366.354ZM303.208 367.808C303.208 367.808 303.174 367.965 303.393 368.095C303.41 368.016 303.023 367.521 303.129 367.791L303.208 367.808ZM297.26 363.313C296.277 362.525 297.035 363.594 297.26 363.313C297.041 363.183 297.243 363.392 297.26 363.313ZM293.429 360.84L293.614 361.127L293.446 360.761L293.429 360.84ZM297.866 363.938C297.63 363.887 297.945 363.955 297.866 363.938C297.866 363.938 297.99 364.129 297.866 363.938ZM302.197 366.766C302.197 366.766 303.191 367.887 302.197 366.766C302.18 366.845 302.321 366.958 302.197 366.766ZM300.198 365.347L300.383 365.634C300.4 365.555 300.355 365.381 300.198 365.347ZM301.557 366.299C301.04 366.023 301.44 365.697 301.557 366.299C301.714 366.333 301.574 366.22 301.557 366.299ZM295.52 361.455C295.537 361.377 297.22 363.881 296.019 361.81C295.941 361.793 295.626 361.725 295.52 361.455C295.52 361.455 295.458 361.36 295.52 361.455ZM300.091 365.077C299.861 364.615 300.17 365.094 300.091 365.077C300.029 364.981 300.091 365.077 300.091 365.077ZM290.049 357.804L290.155 358.074C290.172 357.996 290.206 357.838 290.049 357.804ZM291.801 358.841C291.784 358.92 292.127 359.241 292.082 359.067L291.801 358.841ZM300.659 365.117C300.844 365.404 300.816 365.151 300.659 365.117C300.659 365.117 300.816 365.151 300.659 365.117ZM299.491 364.041C299.491 364.041 300.17 365.094 299.491 364.041C299.491 364.041 299.614 364.233 299.491 364.041ZM300.597 365.021C300.48 364.419 300.429 364.656 300.597 365.021C300.614 364.943 300.597 365.021 300.597 365.021ZM298.929 363.591L299.193 363.895C299.227 363.737 298.885 363.417 298.929 363.591ZM298.744 363.304C298.2 362.775 298.676 363.619 298.744 363.304C298.587 363.27 298.727 363.383 298.744 363.304ZM297.744 362.594L298.132 363.089L297.744 362.594ZM300.21 364.526C299.627 363.412 299.929 364.301 300.21 364.526C300.087 364.335 300.21 364.526 300.21 364.526ZM294.981 360.516C295.166 360.803 295.756 361.506 294.981 360.516C294.981 360.516 295.105 360.707 294.981 360.516ZM299.621 363.822L299.884 364.126L299.621 363.822ZM290.499 357.243L290.886 357.738L290.499 357.243ZM300.418 364.324C299.597 364.311 299.301 363.012 300.418 364.324C300.418 364.324 300.559 364.436 300.418 364.324ZM298.638 363.034C298.638 363.034 298.604 363.191 298.823 363.321L298.638 363.034ZM299.918 363.969L299.716 363.761C299.778 363.856 299.963 364.143 299.918 363.969ZM294.577 360.099C293.364 358.849 294.577 360.099 294.577 360.099V360.099ZM294.498 360.082L294.779 360.307L294.515 360.003L294.498 360.082ZM299.127 363.057C298.925 362.849 299.716 363.761 299.127 363.057C299.048 363.04 299.267 363.17 299.127 363.057ZM289.129 355.959L289.314 356.246L289.112 356.038L289.129 355.959ZM299.346 363.187C299.346 363.187 299.278 363.501 299.346 363.187V363.187ZM296.538 360.934C296.381 360.9 296.745 361.884 296.538 360.934C296.459 360.917 296.504 361.091 296.538 360.934ZM298.863 362.753C297.757 361.773 298.835 362.5 298.863 362.753C298.723 362.64 298.863 362.753 298.863 362.753ZM298.082 362.173C297.819 361.869 297.846 362.122 298.082 362.173C298.082 362.173 298.004 362.156 298.082 362.173ZM299.099 362.804C299.071 362.551 299.408 363.282 299.099 362.804C299.099 362.804 299.082 362.883 299.099 362.804ZM293.539 358.804L293.802 359.108L293.539 358.804ZM297.37 361.278L297.616 361.661C297.65 361.503 297.51 361.391 297.37 361.278ZM288.146 355.171L288.304 355.205C288.304 355.205 288.242 355.109 288.146 355.171ZM296.465 360.506L296.729 360.81L296.465 360.506ZM293.028 358.118L292.641 357.622L293.028 358.118ZM298.269 361.307C298.269 361.307 299.482 362.557 298.269 361.307C298.393 361.499 298.426 361.341 298.269 361.307ZM297.269 360.597C297.269 360.597 296.04 359.426 297.269 360.597C297.269 360.597 296.989 360.372 297.269 360.597ZM287.444 354.607C287.123 354.95 287.995 354.726 287.444 354.607C287.444 354.607 287.602 354.641 287.444 354.607ZM292.377 357.319L292.641 357.622L292.377 357.319ZM298.937 362.028C298.937 362.028 298.875 361.932 298.937 362.028C299.061 362.219 299.095 362.062 298.937 362.028ZM296.629 360.13C296.982 360.783 296.989 360.372 296.629 360.13C296.629 360.13 296.848 360.26 296.629 360.13ZM292.192 357.032C292.113 357.015 292.158 357.189 292.192 357.032C292.113 357.015 292.192 357.032 292.192 357.032ZM294.568 358.615L294.753 358.902C294.787 358.744 294.629 358.71 294.568 358.615ZM298.067 361.099C297.988 361.082 297.848 360.969 297.91 361.065C297.988 361.082 298.05 361.178 298.067 361.099ZM292.068 356.84C291.855 356.3 292.489 357.178 292.068 356.84V356.84ZM292.338 356.734C292.417 356.751 292.445 357.004 292.602 357.038L292.338 356.734ZM299.415 361.719C299.405 361.388 299.786 362.293 299.415 361.719C299.382 361.877 299.556 361.832 299.415 361.719ZM286.022 354.712L286.1 354.729L285.943 354.695L286.022 354.712ZM293.019 356.633L293.283 356.937L293.097 356.65L293.019 356.633ZM290.081 354.6C289.941 354.487 290.064 354.678 290.126 354.774L290.081 354.6ZM292.631 356.138C291.791 354.31 292.547 356.532 292.631 356.138C292.508 355.947 292.614 356.217 292.631 356.138ZM284.733 355.34L285.02 355.155C284.942 355.138 284.671 355.244 284.733 355.34ZM297.041 358.984L297.322 359.209L297.041 358.984ZM294.39 356.765C293.576 356.342 294.665 357.4 294.39 356.765C294.312 356.748 294.452 356.86 294.39 356.765ZM289.357 353.373C289.279 353.356 289.851 354.138 289.357 353.373C289.2 353.339 289.419 353.469 289.357 353.373ZM295.149 356.681L295.379 357.143L295.149 356.681ZM292.195 354.726L292.397 354.935L292.195 354.726ZM293.29 355.374C293.334 355.523 293.42 355.656 293.537 355.757L293.29 355.374ZM292.465 354.62C291.061 353.494 292.678 355.16 292.465 354.62C292.229 354.569 292.431 354.777 292.465 354.62ZM289.179 352.676L289.757 353.048L289.179 352.676ZM294.656 355.916C294.762 356.186 294.937 356.141 294.656 355.916C294.656 355.916 294.734 355.933 294.656 355.916ZM295.043 356.411C295.515 356.513 294.83 355.871 295.043 356.411C295.043 356.411 294.981 356.316 295.043 356.411ZM294.498 355.882C294.875 356.046 294.262 355.831 294.498 355.882C294.656 355.916 294.498 355.882 294.498 355.882ZM292.252 354.08C292.314 354.176 292.358 354.35 292.516 354.384L292.252 354.08ZM292.561 354.558C292.516 354.384 292.718 354.592 292.595 354.401C292.437 354.367 292.437 354.367 292.561 354.558ZM291.797 353.899C291.265 352.549 291.414 354.146 291.797 353.899C291.735 353.804 291.797 353.899 291.797 353.899ZM285.287 353.154C285.759 353.256 285.749 352.924 285.287 353.154C285.366 353.171 285.462 353.109 285.287 353.154ZM282.814 356.985L282.701 357.125C282.701 357.125 282.814 356.985 282.735 356.968L282.814 356.985ZM294.313 355.595L294.594 355.82L294.313 355.595ZM285.991 352.564C286.148 352.598 286.306 352.632 286.497 352.509L285.991 352.564ZM293.258 354.379C294.302 355.263 293.101 354.345 293.258 354.379C293.337 354.396 293.415 354.413 293.258 354.379ZM287.15 352.156C285.542 351.973 287.15 352.156 287.15 352.156C286.992 352.122 287.228 352.173 287.15 352.156ZM290.882 352.796L290.68 352.588C290.725 352.762 291.022 352.909 290.882 352.796ZM292.871 353.884C292.977 354.154 293.371 354.239 292.871 353.884C292.871 353.884 292.949 353.901 292.871 353.884ZM290.118 352.137C290.259 352.25 290.303 352.424 290.461 352.458L290.118 352.137ZM288.657 351.657C289.157 352.012 289.382 351.731 288.657 351.657C288.893 351.708 288.814 351.691 288.657 351.657ZM289.708 352.131C289.55 352.097 289.365 351.81 289.191 351.855L289.708 352.131ZM292.371 353.529L292.652 353.754L292.388 353.45L292.371 353.529ZM289.444 351.827C289.601 351.861 289.68 351.878 289.803 352.069L289.444 351.827ZM288.865 351.455C290.04 352.12 288.393 351.353 288.865 351.455C289.18 351.523 288.787 351.438 288.865 351.455ZM292.753 353.282L293.124 353.856L292.753 353.282ZM291.439 352.505L291.641 352.713C291.641 352.713 291.596 352.538 291.439 352.505ZM291.928 352.528C291.243 351.886 292.163 353.731 291.928 352.528C291.647 352.302 291.894 352.685 291.928 352.528ZM287.651 351.358C287.651 351.358 286.184 351.288 287.651 351.358C287.494 351.324 287.162 351.335 287.651 351.358ZM287.606 351.184C288.202 351.477 287.781 351.139 287.606 351.184C287.606 351.184 287.685 351.201 287.606 351.184ZM289.799 351.327C289.799 351.327 290.484 351.969 289.799 351.327C289.641 351.293 289.861 351.423 289.799 351.327ZM290.726 351.61C290.647 351.593 290.647 351.593 290.692 351.767C290.99 351.914 290.928 351.818 290.726 351.61ZM287.876 351.077L287.387 351.054L287.859 351.156L287.876 351.077ZM289.928 351.108C289.001 350.826 291.675 352.555 289.928 351.108C289.771 351.074 290.148 351.238 289.928 351.108ZM288.231 350.577C291.549 350.469 288.427 351.196 288.231 350.577C288.642 350.583 288.231 350.577 288.231 350.577ZM288.625 350.662C288.922 350.809 289.412 350.832 288.625 350.662C288.703 350.679 288.861 350.713 288.625 350.662ZM286.466 350.361C285.577 350.664 286.545 350.378 286.466 350.361V350.361ZM282.454 352.543C283.394 352.004 282.454 352.543 282.454 352.543V352.543ZM280.357 356.537L280.47 356.397L280.357 356.537ZM282.471 352.464C283.186 352.206 282.382 352.115 282.471 352.464C282.488 352.385 282.471 352.464 282.471 352.464ZM282.235 352.413C282.027 352.615 282.297 352.509 282.393 352.447C282.393 352.447 282.41 352.368 282.235 352.413ZM283.755 351.094C282.809 352.043 284.318 350.392 283.755 351.094C283.721 351.251 283.755 351.094 283.755 351.094ZM282.235 352.413C282.41 352.368 282.731 352.026 282.235 352.413C282.235 352.413 282.314 352.43 282.235 352.413ZM281.751 353.132C281.481 353.239 281.559 353.255 281.43 353.475L281.751 353.132ZM281.334 353.536C281.092 353.896 281.762 353.464 281.334 353.536C281.317 353.615 281.334 353.536 281.334 353.536ZM279.614 357.694C278.402 359.492 279.652 358.279 279.614 357.694C279.631 357.616 279.614 357.694 279.614 357.694ZM281.549 352.924C280.839 353.924 281.549 352.924 281.549 352.924C281.419 353.143 281.644 352.862 281.549 352.924ZM282.675 351.52C282.832 351.554 283.024 351.43 283.119 351.369C282.962 351.335 282.771 351.458 282.658 351.598L282.675 351.52ZM280.563 354.44C280.945 354.194 280.692 354.221 280.563 354.44C280.563 354.44 280.58 354.362 280.563 354.44ZM279.521 355.451L281.081 353.564C279.168 354.798 279.549 355.704 279.442 355.434C279.476 355.277 279.442 355.434 279.442 355.434L279.521 355.451ZM279.268 355.479C279.189 355.462 278.395 356.855 279.268 355.479C279.268 355.479 279.217 355.715 279.268 355.479ZM282.72 351.694C281.606 352.277 282.618 352.166 282.72 351.694C282.641 351.677 282.72 351.694 282.72 351.694ZM281.34 353.126L281.549 352.924L281.34 353.126ZM280.698 353.811L281.019 353.468C280.985 353.626 280.811 353.67 280.698 353.811ZM281.668 352.373L282.05 352.126C281.893 352.092 281.78 352.233 281.684 352.294L281.668 352.373ZM278.672 359.385L278.881 359.183C278.915 359.026 278.706 359.228 278.672 359.385ZM278.43 359.745C278.885 359.925 278.763 358.582 278.43 359.745C278.509 359.762 278.464 359.588 278.43 359.745ZM279.831 354.777L280.152 354.434L279.831 354.777ZM280.114 353.849C280.241 353.796 280.347 353.704 280.418 353.586C280.243 353.63 280.209 353.788 280.114 353.849ZM278.924 356.31C278.406 357.187 278.941 356.232 278.924 356.31C278.89 356.468 278.941 356.232 278.924 356.31ZM278.58 357.142C278.444 357.772 279.3 356.474 278.58 357.142C278.563 357.221 278.597 357.063 278.58 357.142ZM278.603 356.653C278.603 356.653 279.402 356.002 278.603 356.653C278.603 356.653 278.716 356.512 278.603 356.653ZM272.543 367.945C272.543 367.945 273.511 367.66 272.543 367.945C272.29 367.973 272.639 367.884 272.543 367.945ZM277.523 361.279C276.977 361.902 277.489 361.436 277.523 361.279C277.41 361.419 277.393 361.498 277.523 361.279ZM278.078 357.94C279.115 356.187 276.852 358.663 278.078 357.94C278.191 357.799 278.061 358.018 278.078 357.94ZM278.949 354.669C278.396 355.702 278.662 354.854 278.949 354.669C278.898 354.905 278.949 354.669 278.949 354.669ZM277.955 357.748C277.43 359.035 277.938 357.827 277.955 357.748C277.904 357.984 278.068 357.608 277.955 357.748ZM278.216 356.158L278.441 355.877L278.216 356.158ZM278.126 355.809C278.43 355.545 278.617 354.679 278.126 355.809C278.143 355.73 278.177 355.573 278.126 355.809ZM277.577 358.737C277.577 358.737 277.352 359.018 277.526 358.973L277.577 358.737ZM277.623 357.759L277.882 357.321L277.623 357.759ZM277.963 356.185C278.267 355.922 278.133 355.398 277.963 356.185C277.963 356.185 277.98 356.107 277.963 356.185ZM276.67 360.271C277.458 359.288 277.487 358.389 276.67 360.271C276.878 360.069 276.833 359.895 276.67 360.271ZM268.754 367.951L269.226 368.053L268.675 367.934L268.754 367.951ZM275.687 363.682C275.653 363.84 275.923 363.733 275.687 363.682C275.67 363.761 275.687 363.682 275.687 363.682ZM277.523 357.079C278.328 356.017 277.737 356.466 277.523 357.079C277.653 356.86 277.574 356.843 277.523 357.079ZM276.674 361.013L276.95 360.496L276.691 360.934L276.674 361.013ZM276.776 360.541C276.33 361.845 276.619 360.507 276.776 360.541C276.646 360.76 276.776 360.541 276.776 360.541ZM277.298 357.359C277.393 357.298 277.4 356.887 277.298 357.359C277.376 357.376 277.315 357.281 277.298 357.359ZM276.971 358.112L277.213 357.753L276.971 358.112ZM276.54 360.49C276.315 360.771 276.264 361.007 276.54 360.49C276.41 360.709 276.489 360.726 276.54 360.49ZM276.994 357.623C276.469 358.91 277.072 357.64 276.994 357.623C276.943 357.859 277.072 357.64 276.994 357.623ZM276.694 358.629C276.947 358.602 277.151 357.657 276.694 358.629C276.694 358.629 276.745 358.393 276.694 358.629ZM275.796 361.647C275.909 361.507 276.325 361.103 276.151 361.147L275.796 361.647ZM275.373 362.462C275.455 362.408 275.525 362.339 275.582 362.26L275.373 362.462ZM275.295 362.445C275.346 362.209 275.841 361.822 275.701 361.709C275.633 362.024 275.329 362.288 275.295 362.445ZM274.568 363.523C274.654 363.475 274.726 363.406 274.776 363.321L274.568 363.523ZM274.636 363.209C274.145 364.338 274.636 363.209 274.636 363.209C274.585 363.445 274.732 363.147 274.636 363.209ZM274.557 363.192C274.056 363.989 274.208 363.281 274.557 363.192C274.428 363.411 274.636 363.209 274.557 363.192ZM273.567 363.966C273.664 363.955 273.757 363.918 273.837 363.86C273.837 363.86 273.601 363.809 273.567 363.966ZM274.671 361.899L274.897 361.618L274.671 361.899ZM274.688 361.82L274.818 361.601L274.688 361.82ZM274.429 362.258C274.429 362.258 274.637 362.056 274.429 362.258C274.429 362.258 274.542 362.118 274.429 362.258ZM274.306 362.067C274.62 362.135 274.548 361.707 274.306 362.067C274.306 362.067 274.435 361.848 274.306 362.067ZM272.419 364.707L272.689 364.6L272.419 364.707ZM274.03 362.584L274.238 362.382L274.046 362.505L274.03 362.584ZM272.74 364.364C271.389 364.896 271.929 364.684 272.74 364.364C272.582 364.33 272.47 364.471 272.74 364.364ZM271.581 364.773C272.059 364.464 271.974 364.858 271.581 364.773C271.406 364.818 271.738 364.807 271.581 364.773ZM271.187 364.688C271.266 364.705 271.749 365.139 271.187 364.688C271.013 364.733 271.266 364.705 271.187 364.688ZM270.316 364.912L270.63 364.98L270.316 364.912ZM260.367 358.73C260.177 357.701 260.097 358.837 260.367 358.73V358.73ZM268.399 364.251C268.321 364.234 269.293 364.691 268.399 364.251C268.242 364.217 268.557 364.285 268.399 364.251ZM259.997 358.156C259.347 356.205 259.805 358.28 259.997 358.156C259.952 357.982 259.997 358.156 259.997 358.156ZM259.431 356.964C259.588 356.998 259.554 357.155 259.616 357.251L259.509 356.981L259.431 356.964ZM268.76 363.341L269.058 363.488L268.822 363.437L268.76 363.341ZM268.339 363.003C268.222 362.401 268.086 363.031 268.339 363.003C268.356 362.924 268.418 363.02 268.339 363.003ZM268.216 362.812L268.654 363.071L268.216 362.812ZM258.602 354.314L258.406 353.696L258.602 354.314ZM267.811 362.395C267.418 362.31 268.277 362.907 267.811 362.395C267.811 362.395 267.873 362.491 267.811 362.395ZM267.216 362.102L267.076 361.989L267.216 362.102ZM267.626 362.108C267.407 361.979 267.873 362.491 267.626 362.108C267.548 362.091 267.626 362.108 267.626 362.108ZM257.778 352.407C257.789 352.739 258.244 352.92 257.778 352.407C257.778 352.407 257.936 352.441 257.778 352.407ZM266.346 361.173C266.335 360.841 266.424 361.19 266.346 361.173V361.173ZM257.408 351.833L257.565 351.867C257.582 351.789 257.38 351.58 257.408 351.833ZM265.773 360.391C265.577 359.772 265.633 360.278 265.773 360.391C265.79 360.312 265.773 360.391 265.773 360.391ZM256.961 350.09C256.433 349.482 257.157 350.709 256.961 350.09C256.882 350.073 257.005 350.264 256.961 350.09ZM265.314 359.468C264.584 358.652 265.156 359.434 265.314 359.468C265.173 359.355 265.235 359.451 265.314 359.468ZM256.59 349.516L256.556 349.673C256.556 349.673 256.635 349.69 256.59 349.516ZM264.882 358.798C264.399 358.365 265.016 359.322 264.882 358.798C264.724 358.765 264.831 359.035 264.882 358.798ZM256.31 349.291C256.276 349.448 256.337 349.544 256.416 349.561C256.433 349.482 256.45 349.403 256.31 349.291ZM264.696 358.511C265.263 359.704 264.933 358.562 264.696 358.511C264.82 358.703 264.696 358.511 264.696 358.511ZM264.511 358.224C264.533 358.888 265.022 358.911 264.511 358.224C264.511 358.224 264.652 358.337 264.511 358.224ZM255.928 348.385C256.063 348.908 256.439 349.071 255.928 348.385C255.894 348.542 256.052 348.576 255.928 348.385ZM264.439 357.797C264.237 357.589 264.32 358.348 264.439 357.797C264.439 357.797 264.422 357.876 264.439 357.797ZM264.113 357.397L263.945 357.032C263.911 357.189 264.018 357.459 264.113 357.397ZM263.811 356.509C263.553 355.794 263.811 356.509 263.811 356.509V356.509ZM263.396 355.76L263.564 356.126C263.598 355.969 263.413 355.682 263.396 355.76ZM263.396 355.76C263.211 355.473 263.379 355.839 263.396 355.76C263.396 355.76 263.379 355.839 263.396 355.76ZM263.077 354.95C263.099 355.168 263.166 355.378 263.272 355.569L263.077 354.95ZM263.111 354.793L263.245 355.316L263.111 354.793ZM262.572 353.853C262.915 354.174 262.172 354.179 262.572 353.853V353.853ZM261.833 351.553C261.822 351.221 261.957 351.744 261.833 351.553V351.553ZM248.199 339.553C247.248 339.759 249.092 339.992 248.199 339.553C248.12 339.536 248.356 339.587 248.199 339.553ZM246.585 339.781C246.759 339.736 247.074 339.804 247.012 339.708L246.585 339.781ZM237.166 352.902C237.357 352.778 237.313 352.604 237.166 352.902C237.47 352.638 237.279 352.761 237.166 352.902ZM237.549 352.655C237.78 351.964 237.549 352.655 237.549 352.655C237.549 352.655 237.436 352.795 237.549 352.655ZM242.169 341.546C241.454 341.804 241.961 341.748 242.169 341.546C242.073 341.608 242.152 341.625 242.169 341.546ZM236.952 353.514C236.901 353.75 237.621 353.082 236.952 353.514C236.935 353.593 237.047 353.452 236.952 353.514ZM241.465 342.135C241.657 342.012 241.623 342.169 241.831 341.967L241.465 342.135ZM236.856 353.576C236.552 353.84 236.805 353.812 236.856 353.576C236.839 353.655 236.839 353.655 236.856 353.576ZM233.327 351.991L233.587 351.553L233.327 351.991ZM232.972 352.491L233.249 351.974L232.972 352.491ZM232.764 352.693C232.877 352.553 232.945 352.238 232.764 352.693C232.764 352.693 232.781 352.614 232.764 352.693ZM226.555 353.989C226.398 353.955 227.637 356.61 226.555 353.989C226.398 353.955 226.645 354.338 226.555 353.989ZM225.938 353.032C225.876 352.937 226.605 354.905 225.938 353.032C225.938 353.032 226.045 353.302 225.938 353.032ZM229.91 355.618C229.876 355.776 229.937 355.871 229.91 355.618V355.618ZM225.451 351.857C226.117 353.73 225.776 352.256 225.451 351.857C225.619 352.222 225.698 352.239 225.451 351.857ZM229.765 354.764C229.765 354.764 229.512 354.791 229.765 354.764V354.764ZM223.959 349.229C223.959 349.229 224.042 349.988 223.959 349.229C223.818 349.116 223.942 349.308 223.959 349.229ZM225.588 350.074C225.06 349.467 225.622 349.917 225.588 350.074C225.431 350.041 225.588 350.074 225.588 350.074ZM227.313 350.858C227.313 350.858 227.279 351.016 227.419 351.128C227.453 350.971 227.251 350.763 227.313 350.858ZM226.696 349.902L227.004 350.38L226.713 349.823L226.696 349.902ZM226.281 349.153L226.466 349.44L226.281 349.153ZM226.551 349.047C226.332 348.917 226.517 349.204 226.551 349.047C226.394 349.013 226.551 349.047 226.551 349.047ZM222.54 342.829L222.629 343.177C222.629 343.177 222.68 342.941 222.54 342.829V342.829Z" fill="black"/>
<path fill-rule="evenodd" clip-rule="evenodd" d="M281.691 351.884C279.66 352.516 280.587 352.799 281.691 351.884C281.691 351.884 281.595 351.946 281.691 351.884ZM301.398 371.617C301.24 371.583 301.196 371.409 301.134 371.313L301.398 371.617ZM296.959 365.472C297.189 365.933 296.599 365.229 296.959 365.472C297.082 365.663 296.959 365.472 296.959 365.472ZM302.081 369.212C301.958 369.021 301.66 368.874 302.081 369.212C302.143 369.308 301.941 369.099 302.081 369.212ZM299.88 367.584C299.88 367.584 299.458 367.246 299.88 367.584V367.584ZM300.43 367.703C300.588 367.737 300.52 368.052 300.43 367.703V367.703ZM295.572 364.267C293.757 363.134 296.248 363.424 295.572 364.267C295.431 364.154 295.572 364.267 295.572 364.267ZM300.886 367.883C299.494 365.936 300.819 367.046 300.886 367.883C300.577 367.405 300.92 367.726 300.886 367.883ZM305.689 370.814C305.497 370.937 305.767 370.831 305.689 370.814V370.814ZM300.173 366.989L299.926 366.606C300.083 366.64 300.111 366.893 300.173 366.989ZM294.663 362.753C294.68 362.674 294.348 362.685 294.663 362.753C294.742 362.77 294.663 362.753 294.663 362.753ZM302.606 367.925C302.455 367.481 303.174 367.965 302.606 367.925C302.606 367.925 302.685 367.942 302.606 367.925ZM299.259 364.733C298.642 363.776 299.259 364.733 299.259 364.733C299.136 364.541 299.259 364.733 299.259 364.733ZM291.733 359.156C291.812 359.173 291.576 359.122 291.733 359.156C291.733 359.156 291.655 359.139 291.733 359.156ZM291.189 358.627C290.706 358.193 290.774 357.879 291.189 358.627C291.048 358.514 291.144 358.453 291.189 358.627ZM290.695 357.862C291.195 358.217 290.842 357.564 290.695 357.862C290.774 357.879 290.695 357.862 290.695 357.862ZM300.964 363.701C300.964 363.701 300.437 363.093 300.964 363.701V363.701ZM298.292 360.818C298.041 359.693 297.573 360.334 298.292 360.818C298.292 360.818 298.152 360.706 298.292 360.818ZM296.911 359.203C296.165 358.465 296.788 359.011 296.911 359.203C296.754 359.169 296.788 359.011 296.911 359.203ZM290.61 354.055C290.425 353.768 290.172 353.796 290.61 354.055C290.576 354.213 290.532 354.038 290.61 354.055ZM293.903 355.589C293.982 355.606 292.656 354.497 293.903 355.589V355.589ZM292.937 354.722C293.269 354.711 291.69 353.629 292.937 354.722C292.937 354.722 292.814 354.531 292.937 354.722ZM293.33 354.807C293.207 354.615 292.673 354.418 293.33 354.807C293.454 354.998 293.252 354.79 293.33 354.807ZM291.871 353.174C291.95 353.191 292.365 353.94 291.871 353.174C291.871 353.174 291.994 353.366 291.871 353.174ZM290.26 351.097C290.209 351.333 290.007 351.125 290.26 351.097V351.097ZM286.077 351.019C286.252 350.974 285.65 351.091 286.077 351.019C286.094 350.94 285.999 351.002 286.077 351.019ZM282.047 354.431C281.692 354.931 281.664 354.678 282.047 354.431V354.431ZM283.857 350.622C284.065 350.42 283.104 350.295 283.857 350.622C283.97 350.481 283.778 350.605 283.857 350.622ZM283.204 350.975C280.436 352.354 281.765 351.159 283.204 350.975C283.126 350.958 283.047 350.941 283.204 350.975Z" fill="black"/>
<line x1="176.577" y1="207.075" x2="193.641" y2="224.139" stroke="black" stroke-width="2.64706"/>
<line y1="-1.32353" x2="24.1319" y2="-1.32353" transform="matrix(-0.707107 0.707107 0.707107 0.707107 194.98 208.011)" stroke="black" stroke-width="2.64706"/>
<path d="M182.878 69.4232H177.79V99.5061H182.878V69.4232Z" fill="black"/>
<path d="M194.948 69.4232H189.86V99.5061H194.948V69.4232Z" fill="black"/>
<path d="M207.018 69.4232H201.93V99.5061H207.018V69.4232Z" fill="white"/>
<path d="M219.088 69.4232H214.001V99.5061H219.088V69.4232Z" fill="black"/>
<path d="M231.159 69.4232H226.071V99.5061H231.159V69.4232Z" fill="white"/>
<path d="M243.229 69.4232H238.141V99.5061H243.229V69.4232Z" fill="black"/>
<path d="M255.299 69.4232H250.211V99.5061H255.299V69.4232Z" fill="black"/>
<path d="M267.518 69.4232H262.281V99.5061H267.518V69.4232Z" fill="black"/>
<path d="M115.709 0.662362L112.443 2.60767L121.278 17.4429L124.545 15.4976L115.709 0.662362Z" fill="black"/>
<path d="M124.939 2.99972L110.104 11.8356L112.049 15.1017L126.884 6.26586L124.939 2.99972Z" fill="black"/>
<path d="M224.261 444.323L223.012 447.914L239.32 453.588L240.569 449.997L224.261 444.323Z" fill="white"/>
<path d="M232.831 440.175L227.157 456.483L230.748 457.733L236.422 441.424L232.831 440.175Z" fill="white"/>
<line x1="2.67019" y1="80.4498" x2="36.7774" y2="87.1952" stroke="black" stroke-width="3.81373"/>
<line y1="-1.90686" x2="34.7678" y2="-1.90686" transform="matrix(-0.194012 0.980999 0.980999 0.194012 25.45 66.8154)" stroke="black" stroke-width="3.81373"/>
</svg>
