<svg width="1920" height="579" viewBox="0 0 1920 579" fill="none" xmlns="http://www.w3.org/2000/svg">
<path d="M94.8139 306.5C65.3096 270.102 45.7962 262.908 0 252V579H935.5C935.5 579 1169.15 226.706 1404 135.5C1468.16 110.583 1506.34 101.649 1574 89C1641.66 76.3513 1712.94 111.004 1741.5 145C1770.06 178.996 1763.74 254.272 1803 275C1846.34 297.878 1920 255 1920 255V0L967 -1.52588e-05C967 -1.52588e-05 859.76 122.119 673.5 239.5C511.626 341.513 270.176 460.46 233 454C195.824 447.54 181.21 436.339 155.5 414C119.109 382.381 119.973 337.538 94.8139 306.5Z" fill="black" fill-opacity="0.1"/>
</svg>
