<svg width="15" height="16" viewBox="0 0 15 16" fill="none" xmlns="http://www.w3.org/2000/svg">
<path d="M7.29356 1.0275C7.12541 0.9925 6.92211 0.9875 6.62571 1.0325C6.41365 1.06106 6.2097 1.13638 6.02717 1.25356C5.84465 1.37073 5.68766 1.52712 5.56646 1.7125C5.32326 2.0765 5.17506 2.5755 5.12946 3.1595C5.12756 3.3495 5.09621 4.0295 5.04966 4.9375H7.12541C7.25139 4.9375 7.37221 4.99018 7.46129 5.08395C7.55037 5.17771 7.60041 5.30489 7.60041 5.4375C7.60041 5.57011 7.55037 5.69728 7.46129 5.79105C7.37221 5.88482 7.25139 5.9375 7.12541 5.9375H4.99741C4.87771 8.1875 4.71241 11.0825 4.65446 11.8755V11.8785L4.64876 11.9485C4.60316 12.5205 4.54996 13.2005 4.35996 13.8275C4.15761 14.4945 3.78996 15.1375 3.09646 15.5655C2.12461 16.2005 1.07106 15.9105 0.262611 15.4855C0.149861 15.4261 0.0641484 15.322 0.0243298 15.196C-0.0154889 15.0701 -0.00615213 14.9327 0.0502859 14.814C0.106724 14.6953 0.20564 14.6051 0.325274 14.5632C0.444909 14.5213 0.575461 14.5311 0.688211 14.5905C1.39786 14.9645 2.05241 15.0735 2.59866 14.7135L2.61101 14.7055C3.05276 14.4355 3.30166 14.0285 3.45461 13.5225C3.61136 13.0065 3.65696 12.4265 3.70541 11.8205L3.70731 11.7995V11.7975C3.76431 11.0045 3.92676 8.1575 4.04551 5.9375H2.37541C2.24943 5.9375 2.12861 5.88482 2.03954 5.79105C1.95046 5.69728 1.90041 5.57011 1.90041 5.4375C1.90041 5.30489 1.95046 5.17771 2.03954 5.08395C2.12861 4.99018 2.24943 4.9375 2.37541 4.9375H4.09776C4.13299 4.32521 4.16118 3.7125 4.18231 3.0995C4.23361 2.3895 4.41696 1.6945 4.78936 1.1375C5.16936 0.5675 5.73366 0.1645 6.48321 0.0435L6.48796 0.0425001C6.85466 -0.0124999 7.17386 -0.0175001 7.47976 0.0474999C7.78756 0.1125 8.05356 0.2405 8.31956 0.4085C8.42765 0.476661 8.50559 0.587228 8.53623 0.715878C8.56688 0.844527 8.54771 0.980722 8.48296 1.0945C8.41821 1.20828 8.31317 1.29032 8.19095 1.32258C8.06873 1.35483 7.93935 1.33466 7.83126 1.2665C7.66688 1.15397 7.48482 1.07304 7.29356 1.0275V1.0275ZM14.1117 7.0835C14.1559 7.12995 14.191 7.18512 14.215 7.24587C14.2389 7.30661 14.2513 7.37173 14.2513 7.4375C14.2513 7.50327 14.2389 7.56839 14.215 7.62913C14.191 7.68988 14.1559 7.74505 14.1117 7.7915L11.0527 11.0115C11.4873 11.8375 11.9288 12.6596 12.377 13.4775L12.416 13.5495C12.4777 13.6645 12.5214 13.7395 12.5623 13.7995C12.6193 13.8835 12.6734 13.9435 12.7941 14.0135C12.9993 14.0505 13.0601 14.0055 13.0848 13.9885C13.1298 13.9522 13.1698 13.9095 13.2035 13.8615C13.2395 13.8141 13.2744 13.7658 13.308 13.7165C13.3318 13.6805 13.3603 13.6395 13.3954 13.5905C13.4328 13.538 13.4797 13.4937 13.5334 13.4603C13.5871 13.4268 13.6465 13.4048 13.7082 13.3955C13.77 13.3862 13.8329 13.3898 13.8933 13.4061C13.9537 13.4224 14.0105 13.4511 14.0604 13.4905C14.1103 13.5299 14.1524 13.5793 14.1841 13.6358C14.2159 13.6923 14.2368 13.7548 14.2456 13.8198C14.2545 13.8848 14.251 13.951 14.2355 14.0146C14.2201 14.0782 14.1928 14.138 14.1554 14.1905L14.1013 14.2685C13.9939 14.4255 13.8353 14.6585 13.6263 14.8095C13.3261 15.0295 12.9689 15.0775 12.5357 14.9795C12.4961 14.9707 12.4578 14.9566 12.4217 14.9375C12.1683 14.8134 11.9502 14.6218 11.789 14.3815C11.7178 14.273 11.6519 14.1609 11.5914 14.0455L11.5486 13.9665C11.1439 13.2305 10.7458 12.4905 10.3545 11.7465L7.46171 14.7915C7.37264 14.8854 7.25179 14.9382 7.12575 14.9383C6.9997 14.9384 6.87878 14.8858 6.78959 14.792C6.70039 14.6982 6.65024 14.571 6.65015 14.4384C6.65006 14.3057 6.70004 14.1784 6.78911 14.0845L9.87281 10.8385C9.51678 10.1609 9.15577 9.48621 8.78981 8.8145C8.70173 8.62228 8.59778 8.43857 8.47916 8.2655C8.39605 8.13865 8.28941 8.03082 8.16566 7.9485C8.10771 7.9285 8.05451 7.9345 7.97091 7.9895C7.85691 8.0635 7.73436 8.2025 7.60041 8.3905C7.56298 8.44303 7.51609 8.48728 7.46242 8.52074C7.40875 8.55419 7.34934 8.57619 7.28759 8.58547C7.22583 8.59476 7.16295 8.59115 7.10252 8.57486C7.0421 8.55856 6.98531 8.5299 6.93541 8.4905C6.88551 8.4511 6.84347 8.40175 6.81169 8.34525C6.7799 8.28875 6.75901 8.22621 6.75018 8.16121C6.74136 8.09621 6.74479 8.03002 6.76027 7.96641C6.77575 7.9028 6.80298 7.84303 6.84041 7.7905C6.99051 7.5795 7.19951 7.3175 7.46741 7.1415C7.75431 6.9525 8.12766 6.8545 8.53616 7.0265C8.54851 7.0315 8.56086 7.0365 8.57226 7.0435C8.85536 7.1935 9.07576 7.4355 9.23916 7.6655C9.40066 7.8935 9.53176 8.1415 9.63151 8.3505C9.75976 8.5775 10.1417 9.2945 10.5711 10.1035L13.4401 7.0835C13.5291 6.98976 13.6499 6.93711 13.7759 6.93711C13.9018 6.93711 14.0226 6.98976 14.1117 7.0835V7.0835Z" fill="black"/>
</svg>
