<svg width="16" height="20" viewBox="0 0 16 20" fill="none" xmlns="http://www.w3.org/2000/svg">
<path d="M0.5 3.74976V16.2438" stroke="black" stroke-width="0.763845" stroke-linecap="round"/>
<path d="M15.5 7.49976V16.2498" stroke="black" stroke-width="0.763845" stroke-linecap="round" stroke-linejoin="round"/>
<path d="M3.00024 1.24976H9.25024" stroke="black" stroke-width="0.763845" stroke-linecap="round" stroke-linejoin="round"/>
<path d="M3.00024 18.7498H13.0002" stroke="black" stroke-width="0.763845" stroke-linecap="round"/>
<path d="M15.5 16.2498C15.5068 17.4983 14.25 18.7498 13 18.7498" stroke="black" stroke-width="0.763845" stroke-linecap="round" stroke-linejoin="round"/>
<path d="M0.500244 16.2498C0.500244 17.4998 1.75024 18.7498 3.00024 18.7498" stroke="black" stroke-width="0.763845" stroke-linecap="round" stroke-linejoin="round"/>
<path d="M0.500244 3.74805C0.500244 2.49986 1.75024 1.2777 3.00024 1.24986" stroke="black" stroke-width="0.763845" stroke-linecap="round" stroke-linejoin="round"/>
<path d="M15.4932 7.50536L9.25 1.24976" stroke="black" stroke-width="0.763845" stroke-linecap="round" stroke-linejoin="round"/>
<path d="M9.25 4.99976C9.25384 6.24295 10.505 7.49976 11.75 7.49976" stroke="black" stroke-width="0.763845" stroke-linecap="round" stroke-linejoin="round"/>
<path d="M9.25 4.99976V1.24976" stroke="black" stroke-width="0.763845" stroke-linecap="round" stroke-linejoin="round"/>
<path d="M11.75 7.49976H15.5" stroke="black" stroke-width="0.763845" stroke-linecap="round" stroke-linejoin="round"/>
<path d="M3.00024 16.2498H6.75024" stroke="black" stroke-width="0.764227" stroke-linecap="round" stroke-linejoin="round"/>
<path d="M3.00024 13.7498H9.25024" stroke="black" stroke-width="0.764227" stroke-linecap="round" stroke-linejoin="round"/>
<path d="M3.00024 11.2498H6.75024" stroke="black" stroke-width="0.764227" stroke-linecap="round" stroke-linejoin="round"/>
</svg>
