<svg width="32" height="32" viewBox="0 0 32 32" fill="none" xmlns="http://www.w3.org/2000/svg">
<path d="M16.98 5.01856C18.1726 5 19.3584 5.011 20.5428 5C20.6145 6.40326 21.1162 7.83265 22.1372 8.82477C23.1562 9.84163 24.5976 10.3071 26 10.4645V14.1559C24.6858 14.1126 23.3654 13.8376 22.1728 13.2683C21.6534 13.0318 21.1695 12.7272 20.6959 12.4158C20.6897 15.0944 20.7068 17.7696 20.6788 20.4373C20.6077 21.7188 20.1874 22.9942 19.4466 24.0503C18.2546 25.8083 16.1859 26.9544 14.0611 26.9902C12.7578 27.0651 11.4559 26.7076 10.3453 26.0489C8.50478 24.9571 7.20968 22.9585 7.02105 20.8133C6.99729 20.359 6.99364 19.9039 7.01012 19.4493C7.17414 17.705 8.03185 16.0363 9.36318 14.9012C10.8722 13.5791 12.9861 12.9493 14.9653 13.3219C14.9837 14.6798 14.9297 16.0363 14.9297 17.3942C14.0256 17.1 12.969 17.1825 12.1789 17.7346C11.6009 18.1176 11.1641 18.6812 10.9358 19.3386C10.7471 19.8034 10.8011 20.3197 10.8121 20.8133C11.0287 22.3177 12.4666 23.5821 14.0016 23.4452C15.0193 23.4342 15.9945 22.8402 16.5249 21.9705C16.6964 21.6659 16.8885 21.3544 16.8987 20.9962C16.9882 19.3565 16.9527 17.7236 16.9636 16.0838C16.9712 12.3883 16.9527 8.70307 16.9807 5.01925L16.98 5.01856Z" fill="#3C4563"/>
</svg>
